<svg width="1em" height="1em" viewBox="0 0 20 20" fill="none" xmlns="http://www.w3.org/2000/svg">
<path d="M13.3333 10.625H6.66663C6.32496 10.625 6.04163 10.3417 6.04163 10C6.04163 9.65833 6.32496 9.375 6.66663 9.375H13.3333C13.675 9.375 13.9583 9.65833 13.9583 10C13.9583 10.3417 13.675 10.625 13.3333 10.625Z" fill="#9A9AA9"/>
<path d="M10 13.9583C9.65833 13.9583 9.375 13.675 9.375 13.3333V6.66663C9.375 6.32496 9.65833 6.04163 10 6.04163C10.3417 6.04163 10.625 6.32496 10.625 6.66663V13.3333C10.625 13.675 10.3417 13.9583 10 13.9583Z" fill="#9A9AA9"/>
<path d="M12.5 18.9583H7.49996C2.97496 18.9583 1.04163 17.025 1.04163 12.5V7.49996C1.04163 2.97496 2.97496 1.04163 7.49996 1.04163H12.5C17.025 1.04163 18.9583 2.97496 18.9583 7.49996V12.5C18.9583 17.025 17.025 18.9583 12.5 18.9583ZM7.49996 2.29163C3.65829 2.29163 2.29163 3.65829 2.29163 7.49996V12.5C2.29163 16.3416 3.65829 17.7083 7.49996 17.7083H12.5C16.3416 17.7083 17.7083 16.3416 17.7083 12.5V7.49996C17.7083 3.65829 16.3416 2.29163 12.5 2.29163H7.49996Z" fill="#CDCCD4"/>
</svg>
