<svg viewBox="0 0 17 17" fill="none" xmlns="http://www.w3.org/2000/svg">
<rect x="1.8125" y="1.8125" width="13.375" height="13.375" rx="3.25" stroke="currentColor" stroke-width="1.5"/>
<path d="M2.125 5.6665L2.125 2.12484L14.875 2.12484L14.875 5.6665L2.125 5.6665Z" fill="currentColor"/>
<path d="M6.7016 12.7502C7.71463 12.7502 8.49992 12.1301 8.49992 11.1177C8.49992 10.4662 8.13083 9.92468 7.44763 9.80695V9.7834C8.00518 9.5401 8.28789 9.10058 8.28789 8.48054C8.28789 7.6172 7.6518 7.0835 6.70945 7.0835C5.95557 7.0835 5.38231 7.38174 5.0839 7.93899L5.58649 8.57472C5.86134 8.17445 6.18331 7.98608 6.62307 7.98608C7.09425 7.98608 7.32198 8.26078 7.32198 8.65321C7.32198 9.12412 6.92148 9.40667 6.47387 9.40667H6.12048V10.3093H6.51313C7.14922 10.3093 7.53401 10.584 7.53401 11.0863C7.53401 11.5022 7.2356 11.8476 6.64663 11.8476C6.1676 11.8476 5.74354 11.5729 5.46869 11.1648L4.95825 11.824C5.24881 12.3813 5.86134 12.7502 6.7016 12.7502Z" fill="currentColor"/>
<path d="M9.20825 8.16517L9.703 8.93202L10.4005 8.40733V12.7502H11.3333V7.0835H10.6601L9.20825 8.16517Z" fill="currentColor"/>
</svg>
