<svg viewBox="0 0 17 17" fill="none" xmlns="http://www.w3.org/2000/svg">
<path d="M3.448 7.49329C3.40031 7.53918 3.34342 7.57564 3.28064 7.60053C3.21786 7.62541 3.15046 7.63823 3.08237 7.63823C3.01429 7.63823 2.94689 7.62541 2.88411 7.60053C2.82133 7.57564 2.76444 7.53918 2.71675 7.49329C2.61969 7.40003 2.5653 7.2745 2.5653 7.14373C2.5653 7.01297 2.61969 6.88744 2.71675 6.79418L7.24 2.47912C8.26 1.73114 9.286 1.37203 10.3075 1.4209C11.5945 1.48323 12.5965 1.94647 13.447 2.70649C14.314 3.48139 14.875 4.58707 14.875 5.9272C14.875 6.95568 14.5585 7.8609 13.8903 8.66413L7.513 14.869C6.868 15.3683 6.151 15.6099 5.383 15.5808C4.408 15.5426 3.68275 15.2451 3.1435 14.7415C2.512 14.1529 2.125 13.4297 2.125 12.4572C2.125 11.6837 2.40775 10.9697 2.99125 10.2996L8.60425 4.88739C9.05425 4.43407 9.4945 4.16491 9.9445 4.09975C10.2449 4.05507 10.5522 4.08044 10.8398 4.17365C11.1274 4.26686 11.3865 4.42508 11.5945 4.63453C11.9935 5.03331 12.1645 5.53054 12.1045 6.09649C12.0632 6.48252 11.896 6.8381 11.5885 7.1788L6.4285 12.171C6.38113 12.2171 6.32451 12.2538 6.26197 12.279C6.19942 12.3041 6.13219 12.3173 6.06419 12.3177C5.9962 12.3181 5.9288 12.3057 5.86593 12.2813C5.80306 12.2568 5.74597 12.2208 5.698 12.1753C5.60034 12.0826 5.54514 11.9573 5.5443 11.8266C5.54346 11.6958 5.59704 11.57 5.6935 11.4761L10.8287 6.50944C10.9787 6.34298 11.0575 6.17511 11.0763 5.99662C11.1062 5.71329 11.0342 5.50434 10.8475 5.31805C10.7532 5.22264 10.6354 5.15073 10.5045 5.10872C10.3737 5.0667 10.2338 5.05588 10.0975 5.07722C9.91525 5.10343 9.66025 5.25997 9.346 5.57588L3.75625 10.964C3.3535 11.428 3.1585 11.9203 3.1585 12.4579C3.1585 13.1336 3.41725 13.6174 3.865 14.0346C4.22125 14.3675 4.705 14.5658 5.425 14.5941C5.935 14.6133 6.4075 14.4539 6.8185 14.1394L13.1163 8.01248C13.6 7.42671 13.8415 6.73751 13.8415 5.92791C13.8415 4.87819 13.4087 4.02679 12.7405 3.42897C12.058 2.81841 11.278 2.45858 10.2557 2.409C9.49975 2.37217 8.707 2.64983 7.918 3.22073L3.448 7.494V7.49329Z" fill="currentColor"/>
</svg>
