<svg width="1em" height="1em" viewBox="0 0 14 14" fill="none" xmlns="http://www.w3.org/2000/svg">
<path d="M3.69825 11.1766C3.47659 11.1766 3.25492 11.0949 3.07992 10.9199C2.74159 10.5816 2.74159 10.0216 3.07992 9.68326L9.68326 3.07992C10.0216 2.74159 10.5816 2.74159 10.9199 3.07992C11.2583 3.41826 11.2583 3.97825 10.9199 4.31659L4.31659 10.9199C4.15325 11.0949 3.91992 11.1766 3.69825 11.1766Z" fill="currentColor"/>
<path d="M10.3016 11.1766C10.0799 11.1766 9.85825 11.0949 9.68326 10.9199L3.07992 4.31659C2.74159 3.97825 2.74159 3.41826 3.07992 3.07992C3.41826 2.74159 3.97825 2.74159 4.31659 3.07992L10.9199 9.68326C11.2583 10.0216 11.2583 10.5816 10.9199 10.9199C10.7449 11.0949 10.5233 11.1766 10.3016 11.1766Z" fill="currentColor"/>
</svg>
