<svg width="1em" height="1em" viewBox="0 0 16 16" fill="none" xmlns="http://www.w3.org/2000/svg">
<path d="M8.70495 8.00023L10.2383 6.4669C10.4316 6.27357 10.4316 5.95357 10.2383 5.76023C10.0449 5.5669 9.72495 5.5669 9.53161 5.76023L7.99828 7.29357L6.46495 5.76023C6.27161 5.5669 5.95161 5.5669 5.75828 5.76023C5.56495 5.95357 5.56495 6.27357 5.75828 6.4669L7.29161 8.00023L5.75828 9.53357C5.56495 9.7269 5.56495 10.0469 5.75828 10.2402C5.85828 10.3402 5.98495 10.3869 6.11161 10.3869C6.23828 10.3869 6.36495 10.3402 6.46495 10.2402L7.99828 8.7069L9.53161 10.2402C9.63161 10.3402 9.75828 10.3869 9.88495 10.3869C10.0116 10.3869 10.1383 10.3402 10.2383 10.2402C10.4316 10.0469 10.4316 9.7269 10.2383 9.53357L8.70495 8.00023Z" fill="currentColor"/>
</svg>
