<svg viewBox="0 0 24 25" fill="none" xmlns="http://www.w3.org/2000/svg">
<path d="M9.16937 16.0801C8.97937 16.0801 8.78938 16.0101 8.63938 15.8601C8.34938 15.5701 8.34938 15.0901 8.63938 14.8001L14.2994 9.14011C14.5894 8.85011 15.0694 8.85011 15.3594 9.14011C15.6494 9.43011 15.6494 9.91011 15.3594 10.2001L9.69937 15.8601C9.55937 16.0101 9.35937 16.0801 9.16937 16.0801Z" fill="currentColor"/>
<path d="M14.8294 16.0801C14.6394 16.0801 14.4494 16.0101 14.2994 15.8601L8.63938 10.2001C8.34938 9.91011 8.34938 9.43011 8.63938 9.14011C8.92937 8.85011 9.40937 8.85011 9.69937 9.14011L15.3594 14.8001C15.6494 15.0901 15.6494 15.5701 15.3594 15.8601C15.2094 16.0101 15.0194 16.0801 14.8294 16.0801Z" fill="currentColor"/>
</svg>
