<svg width="1em" height="1em" viewBox="0 0 19 20" fill="none" xmlns="http://www.w3.org/2000/svg">
<path d="M9.49992 18.5106C4.80534 18.5106 0.989502 14.6947 0.989502 10.0002C0.989502 5.30558 4.80534 1.48975 9.49992 1.48975C14.1945 1.48975 18.0103 5.30558 18.0103 10.0002C18.0103 14.6947 14.1945 18.5106 9.49992 18.5106ZM9.49992 2.67725C5.46242 2.67725 2.177 5.96266 2.177 10.0002C2.177 14.0377 5.46242 17.3231 9.49992 17.3231C13.5374 17.3231 16.8228 14.0377 16.8228 10.0002C16.8228 5.96266 13.5374 2.67725 9.49992 2.67725Z" fill="currentColor"/>
<path d="M7.2595 12.8343C7.10908 12.8343 6.95866 12.7789 6.83991 12.6602C6.61033 12.4306 6.61033 12.0506 6.83991 11.821L11.3207 7.34016C11.5503 7.11057 11.9303 7.11057 12.1599 7.34016C12.3895 7.56974 12.3895 7.94974 12.1599 8.17932L7.67908 12.6602C7.56825 12.7789 7.40991 12.8343 7.2595 12.8343Z" fill="currentColor"/>
<path d="M11.7403 12.8343C11.5899 12.8343 11.4395 12.7789 11.3207 12.6602L6.83991 8.17932C6.61033 7.94974 6.61033 7.56974 6.83991 7.34016C7.0695 7.11057 7.4495 7.11057 7.67908 7.34016L12.1599 11.821C12.3895 12.0506 12.3895 12.4306 12.1599 12.6602C12.0412 12.7789 11.8907 12.8343 11.7403 12.8343Z" fill="currentColor"/>
</svg>
