<svg width="1em" height="1em" viewBox="0 0 17 17" fill="none" xmlns="http://www.w3.org/2000/svg">
<path d="M9.91602 2.125V4.95833C9.91602 5.14619 9.99064 5.32636 10.1235 5.4592C10.2563 5.59204 10.4365 5.66667 10.6243 5.66667H13.4577" stroke="currentColor" stroke-linecap="round" stroke-linejoin="round"/>
<path d="M12.041 14.875H4.95768C4.58196 14.875 4.22162 14.7257 3.95595 14.4601C3.69027 14.1944 3.54102 13.8341 3.54102 13.4583V3.54167C3.54102 3.16594 3.69027 2.80561 3.95595 2.53993C4.22162 2.27426 4.58196 2.125 4.95768 2.125H9.91602L13.4577 5.66667V13.4583C13.4577 13.8341 13.3084 14.1944 13.0427 14.4601C12.7771 14.7257 12.4167 14.875 12.041 14.875Z" stroke="currentColor" stroke-linecap="round" stroke-linejoin="round"/>
<path d="M9.91602 9.20817L8.49935 7.7915L7.08268 9.20817" stroke="currentColor" stroke-linecap="round" stroke-linejoin="round"/>
<path d="M8.5 7.7915L8.5 12.7498" stroke="currentColor" stroke-linecap="round" stroke-linejoin="round"/>
</svg>
