<svg width="1em" height="1em" viewBox="0 0 20 20" fill="none" xmlns="http://www.w3.org/2000/svg">
<path d="M9.49996 18.9583H6.33329C2.67496 18.9583 1.04163 17.325 1.04163 13.6666V10.5C1.04163 6.84165 2.67496 5.20831 6.33329 5.20831H8.83329C9.17496 5.20831 9.45829 5.49165 9.45829 5.83331C9.45829 6.17498 9.17496 6.45831 8.83329 6.45831H6.33329C3.34996 6.45831 2.29163 7.51665 2.29163 10.5V13.6666C2.29163 16.65 3.34996 17.7083 6.33329 17.7083H9.49996C12.4833 17.7083 13.5416 16.65 13.5416 13.6666V11.1666C13.5416 10.825 13.825 10.5416 14.1666 10.5416C14.5083 10.5416 14.7916 10.825 14.7916 11.1666V13.6666C14.7916 17.325 13.1583 18.9583 9.49996 18.9583Z" fill="currentColor"/>
<mask id="path-2-inside-1_2069_16247" fill="white">
<path d="M14.1667 11.7916H11.5C9.15837 11.7916 8.20837 10.8416 8.20837 8.49997V5.8333C8.20837 5.5833 8.35837 5.34997 8.59171 5.2583C8.82504 5.1583 9.09171 5.21664 9.27504 5.39164L14.6084 10.725C14.7834 10.9 14.8417 11.175 14.7417 11.4083C14.65 11.6416 14.4167 11.7916 14.1667 11.7916ZM9.45837 7.34164V8.49997C9.45837 10.1583 9.84171 10.5416 11.5 10.5416H12.6584L9.45837 7.34164Z"/>
</mask>
<path d="M14.1667 11.7916H11.5C9.15837 11.7916 8.20837 10.8416 8.20837 8.49997V5.8333C8.20837 5.5833 8.35837 5.34997 8.59171 5.2583C8.82504 5.1583 9.09171 5.21664 9.27504 5.39164L14.6084 10.725C14.7834 10.9 14.8417 11.175 14.7417 11.4083C14.65 11.6416 14.4167 11.7916 14.1667 11.7916ZM9.45837 7.34164V8.49997C9.45837 10.1583 9.84171 10.5416 11.5 10.5416H12.6584L9.45837 7.34164Z" fill="currentColor"/>
<path d="M8.59171 5.2583L9.14019 6.65443L9.16152 6.64605L9.18259 6.63702L8.59171 5.2583ZM9.27504 5.39164L10.3357 4.33098L10.3234 4.31865L10.3108 4.3066L9.27504 5.39164ZM14.6084 10.725L15.669 9.66431L14.6084 10.725ZM14.7417 11.4083L13.363 10.8174L13.354 10.8385L13.3456 10.8598L14.7417 11.4083ZM9.45837 7.34164L10.519 6.28098L7.95837 3.72032V7.34164H9.45837ZM12.6584 10.5416V12.0416H16.2797L13.719 9.48098L12.6584 10.5416ZM14.1667 10.2916H11.5V13.2916H14.1667V10.2916ZM11.5 10.2916C10.4823 10.2916 10.1502 10.0767 10.0367 9.96327C9.92326 9.84979 9.70837 9.51769 9.70837 8.49997H6.70837C6.70837 9.82392 6.96848 11.1377 7.91542 12.0846C8.86236 13.0315 10.1761 13.2916 11.5 13.2916V10.2916ZM9.70837 8.49997V5.8333H6.70837V8.49997H9.70837ZM9.70837 5.8333C9.70837 6.16333 9.5143 6.50746 9.14019 6.65443L8.04323 3.86218C7.20245 4.19248 6.70837 5.00328 6.70837 5.8333H9.70837ZM9.18259 6.63702C8.81947 6.79264 8.45448 6.68204 8.23933 6.47667L10.3108 4.3066C9.72894 3.75123 8.83061 3.52396 8.00083 3.87959L9.18259 6.63702ZM8.21438 6.4523L13.5477 11.7856L15.669 9.66431L10.3357 4.33098L8.21438 6.4523ZM13.5477 11.7856C13.3013 11.5392 13.2146 11.1636 13.363 10.8174L16.1204 11.9992C16.4688 11.1863 16.2655 10.2608 15.669 9.66431L13.5477 11.7856ZM13.3456 10.8598C13.4926 10.4857 13.8367 10.2916 14.1667 10.2916V13.2916C14.9967 13.2916 15.8075 12.7976 16.1378 11.9568L13.3456 10.8598ZM7.95837 7.34164V8.49997H10.9584V7.34164H7.95837ZM7.95837 8.49997C7.95837 9.29496 8.00937 10.416 8.79667 11.2033C9.58397 11.9906 10.7051 12.0416 11.5 12.0416V9.04164C11.125 9.04164 10.9224 9.01807 10.8174 8.99393C10.7294 8.97372 10.8122 8.97618 10.918 9.08202C11.0238 9.18786 11.0263 9.2706 11.0061 9.18264C10.9819 9.07763 10.9584 8.87503 10.9584 8.49997H7.95837ZM11.5 12.0416H12.6584V9.04164H11.5V12.0416ZM13.719 9.48098L10.519 6.28098L8.39771 8.4023L11.5977 11.6023L13.719 9.48098Z" fill="currentColor" mask="url(#path-2-inside-1_2069_16247)"/>
<mask id="path-4-inside-2_2069_16247" fill="white">
<path d="M13 2.29169H9.66663C9.32496 2.29169 9.04163 2.00835 9.04163 1.66669C9.04163 1.32502 9.32496 1.04169 9.66663 1.04169H13C13.3416 1.04169 13.625 1.32502 13.625 1.66669C13.625 2.00835 13.3416 2.29169 13 2.29169Z"/>
</mask>
<path d="M13 2.29169H9.66663C9.32496 2.29169 9.04163 2.00835 9.04163 1.66669C9.04163 1.32502 9.32496 1.04169 9.66663 1.04169H13C13.3416 1.04169 13.625 1.32502 13.625 1.66669C13.625 2.00835 13.3416 2.29169 13 2.29169Z" fill="currentColor"/>
<path d="M13 0.791687H9.66663V3.79169H13V0.791687ZM9.66663 0.791687C10.1534 0.791687 10.5416 1.17993 10.5416 1.66669H7.54163C7.54163 2.83678 8.49653 3.79169 9.66663 3.79169V0.791687ZM10.5416 1.66669C10.5416 2.15345 10.1534 2.54169 9.66663 2.54169V-0.458313C8.49653 -0.458313 7.54163 0.496593 7.54163 1.66669H10.5416ZM9.66663 2.54169H13V-0.458313H9.66663V2.54169ZM13 2.54169C12.5132 2.54169 12.125 2.15345 12.125 1.66669H15.125C15.125 0.496593 14.1701 -0.458313 13 -0.458313V2.54169ZM12.125 1.66669C12.125 1.17993 12.5132 0.791687 13 0.791687V3.79169C14.1701 3.79169 15.125 2.83678 15.125 1.66669H12.125Z" fill="currentColor" mask="url(#path-4-inside-2_2069_16247)"/>
<path d="M5.83337 4.79169C5.49171 4.79169 5.20837 4.50835 5.20837 4.16669C5.20837 2.44169 6.60837 1.04169 8.33337 1.04169H10.5167C10.8584 1.04169 11.1417 1.32502 11.1417 1.66669C11.1417 2.00835 10.8584 2.29169 10.5167 2.29169H8.33337C7.30004 2.29169 6.45837 3.13335 6.45837 4.16669C6.45837 4.50835 6.17504 4.79169 5.83337 4.79169Z" fill="currentColor"/>
<path d="M15.9917 14.7917C15.65 14.7917 15.3667 14.5084 15.3667 14.1667C15.3667 13.825 15.65 13.5417 15.9917 13.5417C16.9417 13.5417 17.7084 12.7667 17.7084 11.825V6.66669C17.7084 6.32502 17.9917 6.04169 18.3334 6.04169C18.675 6.04169 18.9584 6.32502 18.9584 6.66669V11.825C18.9584 13.4584 17.625 14.7917 15.9917 14.7917Z" fill="currentColor"/>
<path d="M18.3334 7.29168H15.8334C13.6167 7.29168 12.7084 6.38334 12.7084 4.16668V1.66668C12.7084 1.41668 12.8584 1.18334 13.0917 1.09168C13.325 0.991678 13.5917 1.05001 13.775 1.22501L18.775 6.22501C18.95 6.40001 19.0084 6.67501 18.9084 6.90834C18.8167 7.14168 18.5834 7.29168 18.3334 7.29168ZM13.9584 3.17501V4.16668C13.9584 5.69168 14.3084 6.04168 15.8334 6.04168H16.825L13.9584 3.17501Z" fill="currentColor"/>
</svg>
