<svg width="1em" height="1em" viewBox="0 0 24 24" fill="none" xmlns="http://www.w3.org/2000/svg">
<path d="M15 22.25H9C6.3424 22.25 4.56492 21.6803 3.4423 20.5577C2.31968 19.4351 1.75 17.6576 1.75 15V9C1.75 6.3424 2.31968 4.56492 3.4423 3.4423C4.56492 2.31968 6.3424 1.75 9 1.75H11C11.1339 1.75 11.25 1.86614 11.25 2C11.25 2.13386 11.1339 2.25 11 2.25H9C6.65972 2.25 4.92432 2.66107 3.7927 3.7927C2.66107 4.92432 2.25 6.65972 2.25 9V15C2.25 17.3403 2.66107 19.0757 3.7927 20.2073C4.92432 21.3389 6.65972 21.75 9 21.75H15C17.3403 21.75 19.0757 21.3389 20.2073 20.2073C21.3389 19.0757 21.75 17.3403 21.75 15V13C21.75 12.8661 21.8661 12.75 22 12.75C22.1339 12.75 22.25 12.8661 22.25 13V15C22.25 17.6576 21.6803 19.4351 20.5577 20.5577C19.4351 21.6803 17.6576 22.25 15 22.25Z" fill="currentColor" stroke="currentColor"/>
<path d="M6.82503 15.1926L6.8253 15.1907L7.2553 12.1807L7.25563 12.1783C7.32036 11.7091 7.64895 11.0585 7.98388 10.7236L15.8639 2.84355C16.803 1.90439 17.6859 1.4975 18.5103 1.4975C19.3348 1.4975 20.2176 1.90439 21.1568 2.84355C22.1811 3.86786 22.574 4.83946 22.4926 5.75276C22.4172 6.49864 22.0166 7.27608 21.1587 8.12449L21.1568 8.12644L13.2768 16.0064C12.9418 16.3414 12.2912 16.67 11.822 16.7347L11.8196 16.735L8.80961 17.165L8.78859 17.168L8.76789 17.1728C8.7019 17.188 8.62792 17.19 8.50032 17.19C8.01284 17.19 7.58183 17.0157 7.27171 16.7143C6.90916 16.3503 6.73506 15.806 6.82503 15.1926ZM16.2183 3.19493L16.2168 3.19644L8.33677 11.0764C8.18794 11.2253 8.05713 11.436 7.96253 11.6238C7.86789 11.8117 7.7775 12.0401 7.74614 12.244L7.74611 12.244L7.74535 12.2493L7.31534 15.2593L7.31501 15.2617C7.26231 15.6438 7.32776 16.0645 7.62677 16.3636C7.92578 16.6626 8.34657 16.728 8.72864 16.6753L8.73103 16.675L11.741 16.245L11.741 16.245L11.7464 16.2442C11.9489 16.213 12.1791 16.1234 12.3689 16.0285C12.5537 15.9361 12.7689 15.8046 12.9179 15.6495L20.7939 7.77355C21.4744 7.09303 21.9122 6.40892 21.9782 5.6961L21.9782 5.69596C22.0585 4.82574 21.5935 3.99657 20.7962 3.18876L20.7962 3.18876L20.7939 3.18644C19.9445 2.33711 19.1311 1.93502 18.298 2.01213C17.4931 2.08662 16.8183 2.60002 16.2183 3.19493Z" fill="currentColor" stroke="currentColor"/>
<path d="M19.8496 9.83003C19.7796 9.83003 19.7096 9.82003 19.6496 9.80003C17.0196 9.06003 14.9296 6.97003 14.1896 4.34003C14.0796 3.94003 14.3096 3.53003 14.7096 3.41003C15.1096 3.30003 15.5196 3.53003 15.6296 3.93003C16.2296 6.06003 17.9196 7.75003 20.0496 8.35003C20.4496 8.46003 20.6796 8.88003 20.5696 9.28003C20.4796 9.62003 20.1796 9.83003 19.8496 9.83003Z" fill="currentColor"/>
</svg>
