<svg viewBox="0 0 17 17" fill="none" xmlns="http://www.w3.org/2000/svg">
<path d="M15.5834 7.66424C15.5834 3.98041 12.7203 1.4165 8.60447 1.4165C4.3397 1.4165 1.41675 4.29453 1.41675 8.49611C1.41675 12.833 4.26205 15.5832 8.75215 15.5832C9.84953 15.5832 10.9024 15.4305 11.6853 15.1672V14.097C11.1379 14.3441 9.96156 14.5042 8.76997 14.5042C5.04498 14.5042 2.64271 12.17 2.64271 8.54702C2.64271 5.0159 5.08827 2.48676 8.49117 2.48676C11.973 2.48676 14.3575 4.58259 14.3575 7.64686C14.3575 9.73523 13.6522 11.0849 12.5548 11.0849C11.9284 11.0849 11.572 10.7372 11.572 10.1412V5.16117H10.2582V6.19667H10.1181C9.77951 5.45791 8.99658 4.99976 8.08124 4.99976C6.29895 4.99976 5.05389 6.4425 5.05389 8.5048C5.05389 10.6615 6.27222 12.1129 8.08252 12.1129C9.10097 12.1129 9.8839 11.6287 10.2582 10.7633H10.3982C10.5013 11.5951 11.2932 12.1886 12.3116 12.1886C14.3129 12.1886 15.5834 10.4318 15.5834 7.66548V7.66424ZM6.44663 8.53833C6.44663 7.05213 7.13408 6.17059 8.30021 6.17059C9.48416 6.17059 10.2404 7.08689 10.2404 8.53833C10.2404 9.98976 9.47525 10.9148 8.28239 10.9148C7.14299 10.9148 6.44663 10.0146 6.44663 8.53833Z" fill="currentColor"/>
</svg>
