<svg width="1em" height="1em" viewBox="0 0 24 24" fill="none" xmlns="http://www.w3.org/2000/svg">
<rect x="3" width="18" height="24" rx="4" fill="transparent"/>
<path d="M8 7.125C8 7.44141 8.11133 7.71094 8.33398 7.93359C8.54492 8.14453 8.80859 8.25 9.125 8.25C9.44141 8.25 9.71094 8.14453 9.93359 7.93359C10.1445 7.71094 10.25 7.44141 10.25 7.125C10.25 6.80859 10.1445 6.54492 9.93359 6.33398C9.71094 6.11133 9.44141 6 9.125 6C8.80859 6 8.54492 6.11133 8.33398 6.33398C8.11133 6.54492 8 6.80859 8 7.125Z" fill="currentColor"/>
<path d="M13.25 7.125C13.25 7.44141 13.3613 7.71094 13.584 7.93359C13.7949 8.14453 14.0586 8.25 14.375 8.25C14.6914 8.25 14.9609 8.14453 15.1836 7.93359C15.3945 7.71094 15.5 7.44141 15.5 7.125C15.5 6.80859 15.3945 6.54492 15.1836 6.33398C14.9609 6.11133 14.6914 6 14.375 6C14.0586 6 13.7949 6.11133 13.584 6.33398C13.3613 6.54492 13.25 6.80859 13.25 7.125Z" fill="currentColor"/>
<path d="M8 11.875C8 12.1914 8.11133 12.4609 8.33398 12.6836C8.54492 12.8945 8.80859 13 9.125 13C9.44141 13 9.71094 12.8945 9.93359 12.6836C10.1445 12.4609 10.25 12.1914 10.25 11.875C10.25 11.5586 10.1445 11.2949 9.93359 11.084C9.71094 10.8613 9.44141 10.75 9.125 10.75C8.80859 10.75 8.54492 10.8613 8.33398 11.084C8.11133 11.2949 8 11.5586 8 11.875Z" fill="currentColor"/>
<path d="M13.25 11.875C13.25 12.1914 13.3613 12.4609 13.584 12.6836C13.7949 12.8945 14.0586 13 14.375 13C14.6914 13 14.9609 12.8945 15.1836 12.6836C15.3945 12.4609 15.5 12.1914 15.5 11.875C15.5 11.5586 15.3945 11.2949 15.1836 11.084C14.9609 10.8613 14.6914 10.75 14.375 10.75C14.0586 10.75 13.7949 10.8613 13.584 11.084C13.3613 11.2949 13.25 11.5586 13.25 11.875Z" fill="currentColor"/>
<path d="M8 16.625C8 16.9414 8.11133 17.2109 8.33398 17.4336C8.54492 17.6445 8.80859 17.75 9.125 17.75C9.44141 17.75 9.71094 17.6445 9.93359 17.4336C10.1445 17.2109 10.25 16.9414 10.25 16.625C10.25 16.3086 10.1445 16.0449 9.93359 15.834C9.71094 15.6113 9.44141 15.5 9.125 15.5C8.80859 15.5 8.54492 15.6113 8.33398 15.834C8.11133 16.0449 8 16.3086 8 16.625Z" fill="currentColor"/>
<path d="M13.25 16.625C13.25 16.9414 13.3613 17.2109 13.584 17.4336C13.7949 17.6445 14.0586 17.75 14.375 17.75C14.6914 17.75 14.9609 17.6445 15.1836 17.4336C15.3945 17.2109 15.5 16.9414 15.5 16.625C15.5 16.3086 15.3945 16.0449 15.1836 15.834C14.9609 15.6113 14.6914 15.5 14.375 15.5C14.0586 15.5 13.7949 15.6113 13.584 15.834C13.3613 16.0449 13.25 16.3086 13.25 16.625Z" fill="currentColor"/>
</svg>
