<svg width="1em" height="1em" viewBox="0 0 19 20" fill="none" xmlns="http://www.w3.org/2000/svg">
<path d="M9.50016 18.5106C4.80558 18.5106 0.989746 14.6947 0.989746 10.0002C0.989746 5.30558 4.80558 1.48975 9.50016 1.48975C14.1947 1.48975 18.0106 5.30558 18.0106 10.0002C18.0106 14.6947 14.1947 18.5106 9.50016 18.5106ZM9.50016 2.67725C5.46266 2.67725 2.17725 5.96266 2.17725 10.0002C2.17725 14.0377 5.46266 17.3231 9.50016 17.3231C13.5377 17.3231 16.8231 14.0377 16.8231 10.0002C16.8231 5.96266 13.5377 2.67725 9.50016 2.67725Z" fill="currentColor"/>
<path d="M9.5 11.3856C9.17542 11.3856 8.90625 11.1164 8.90625 10.7918V6.8335C8.90625 6.50891 9.17542 6.23975 9.5 6.23975C9.82458 6.23975 10.0938 6.50891 10.0938 6.8335V10.7918C10.0938 11.1164 9.82458 11.3856 9.5 11.3856Z" fill="currentColor"/>
<path d="M9.50016 13.9583C9.39725 13.9583 9.29433 13.9345 9.19933 13.8949C9.10433 13.8554 9.01725 13.7999 8.93808 13.7287C8.86683 13.6495 8.81141 13.5704 8.77183 13.4674C8.73225 13.3724 8.7085 13.2695 8.7085 13.1666C8.7085 13.0637 8.73225 12.9608 8.77183 12.8658C8.81141 12.7708 8.86683 12.6837 8.93808 12.6045C9.01725 12.5333 9.10433 12.4779 9.19933 12.4383C9.38933 12.3591 9.611 12.3591 9.801 12.4383C9.896 12.4779 9.98308 12.5333 10.0622 12.6045C10.1335 12.6837 10.1889 12.7708 10.2285 12.8658C10.2681 12.9608 10.2918 13.0637 10.2918 13.1666C10.2918 13.2695 10.2681 13.3724 10.2285 13.4674C10.1889 13.5704 10.1335 13.6495 10.0622 13.7287C9.98308 13.7999 9.896 13.8554 9.801 13.8949C9.706 13.9345 9.60308 13.9583 9.50016 13.9583Z" fill="currentColor"/>
</svg>
