<svg width="1em" height="1em" viewBox="0 0 18 18" fill="none" xmlns="http://www.w3.org/2000/svg">
<path d="M5.25 7.5625H3.75C2.93158 7.5625 2.37231 7.33895 2.01668 6.98332C1.66105 6.62769 1.4375 6.06842 1.4375 5.25V3.75C1.4375 2.93158 1.66105 2.37231 2.01668 2.01668C2.37231 1.66105 2.93158 1.4375 3.75 1.4375H5.25C6.06842 1.4375 6.62769 1.66105 6.98332 2.01668C7.33895 2.37231 7.5625 2.93158 7.5625 3.75V5.25C7.5625 6.06842 7.33895 6.62769 6.98332 6.98332C6.62769 7.33895 6.06842 7.5625 5.25 7.5625ZM3.75 1.5625C3.10103 1.5625 2.51861 1.69803 2.10832 2.10832C1.69803 2.51861 1.5625 3.10103 1.5625 3.75V5.25C1.5625 5.89897 1.69803 6.48139 2.10832 6.89168C2.51861 7.30197 3.10103 7.4375 3.75 7.4375H5.25C5.89897 7.4375 6.48139 7.30197 6.89168 6.89168C7.30197 6.48139 7.4375 5.89897 7.4375 5.25V3.75C7.4375 3.10103 7.30197 2.51861 6.89168 2.10832C6.48139 1.69803 5.89897 1.5625 5.25 1.5625H3.75Z" stroke="currentColor"/>
<path d="M14.25 8.0625H12.75C10.935 8.0625 9.9375 7.065 9.9375 5.25V3.75C9.9375 1.935 10.935 0.9375 12.75 0.9375H14.25C16.065 0.9375 17.0625 1.935 17.0625 3.75V5.25C17.0625 7.065 16.065 8.0625 14.25 8.0625ZM12.75 2.0625C11.565 2.0625 11.0625 2.565 11.0625 3.75V5.25C11.0625 6.435 11.565 6.9375 12.75 6.9375H14.25C15.435 6.9375 15.9375 6.435 15.9375 5.25V3.75C15.9375 2.565 15.435 2.0625 14.25 2.0625H12.75Z" fill="currentColor"/>
<path d="M14.25 17.0625H12.75C10.935 17.0625 9.9375 16.065 9.9375 14.25V12.75C9.9375 10.935 10.935 9.9375 12.75 9.9375H14.25C16.065 9.9375 17.0625 10.935 17.0625 12.75V14.25C17.0625 16.065 16.065 17.0625 14.25 17.0625ZM12.75 11.0625C11.565 11.0625 11.0625 11.565 11.0625 12.75V14.25C11.0625 15.435 11.565 15.9375 12.75 15.9375H14.25C15.435 15.9375 15.9375 15.435 15.9375 14.25V12.75C15.9375 11.565 15.435 11.0625 14.25 11.0625H12.75Z" fill="currentColor"/>
<path d="M5.25 17.0625H3.75C1.935 17.0625 0.9375 16.065 0.9375 14.25V12.75C0.9375 10.935 1.935 9.9375 3.75 9.9375H5.25C7.065 9.9375 8.0625 10.935 8.0625 12.75V14.25C8.0625 16.065 7.065 17.0625 5.25 17.0625ZM3.75 11.0625C2.565 11.0625 2.0625 11.565 2.0625 12.75V14.25C2.0625 15.435 2.565 15.9375 3.75 15.9375H5.25C6.435 15.9375 6.9375 15.435 6.9375 14.25V12.75C6.9375 11.565 6.435 11.0625 5.25 11.0625H3.75Z" fill="currentColor"/>
</svg>
