<svg width="1em" height="1em" viewBox="0 0 20 20" fill="none" xmlns="http://www.w3.org/2000/svg">
<path d="M10.4169 12.2917H8.33357C7.9919 12.2917 7.70857 12.0083 7.70857 11.6667C7.70857 11.325 7.9919 11.0417 8.33357 11.0417H10.4169C12.6002 11.0417 14.3752 9.26667 14.3752 7.08333C14.3752 4.9 12.6002 3.125 10.4169 3.125H6.25024C4.0669 3.125 2.2919 4.9 2.2919 7.08333C2.2919 8 2.6169 8.89166 3.20023 9.59999C3.4169 9.86666 3.38357 10.2583 3.1169 10.4833C2.85024 10.7 2.45857 10.6667 2.23357 10.4C1.45857 9.46668 1.03357 8.29167 1.03357 7.08333C1.03357 4.20833 3.3669 1.875 6.2419 1.875H10.4086C13.2836 1.875 15.6169 4.20833 15.6169 7.08333C15.6169 9.95833 13.2919 12.2917 10.4169 12.2917Z" fill="currentColor"/>
<mask id="path-2-inside-1_2069_9029" fill="white">
<path d="M13.75 18.125H9.58333C6.70833 18.125 4.375 15.7916 4.375 12.9166C4.375 10.0416 6.70833 7.70831 9.58333 7.70831H11.6667C12.0083 7.70831 12.2917 7.99165 12.2917 8.33331C12.2917 8.67498 12.0083 8.95831 11.6667 8.95831H9.58333C7.4 8.95831 5.625 10.7333 5.625 12.9166C5.625 15.1 7.4 16.875 9.58333 16.875H13.75C15.9333 16.875 17.7083 15.1 17.7083 12.9166C17.7083 12 17.3833 11.1083 16.8 10.4C16.5833 10.1333 16.6167 9.74166 16.8833 9.51666C17.15 9.29166 17.5417 9.3333 17.7667 9.59997C18.5417 10.5333 18.9667 11.7083 18.9667 12.9166C18.9583 15.7916 16.625 18.125 13.75 18.125Z"/>
</mask>
<path d="M13.75 18.125H9.58333C6.70833 18.125 4.375 15.7916 4.375 12.9166C4.375 10.0416 6.70833 7.70831 9.58333 7.70831H11.6667C12.0083 7.70831 12.2917 7.99165 12.2917 8.33331C12.2917 8.67498 12.0083 8.95831 11.6667 8.95831H9.58333C7.4 8.95831 5.625 10.7333 5.625 12.9166C5.625 15.1 7.4 16.875 9.58333 16.875H13.75C15.9333 16.875 17.7083 15.1 17.7083 12.9166C17.7083 12 17.3833 11.1083 16.8 10.4C16.5833 10.1333 16.6167 9.74166 16.8833 9.51666C17.15 9.29166 17.5417 9.3333 17.7667 9.59997C18.5417 10.5333 18.9667 11.7083 18.9667 12.9166C18.9583 15.7916 16.625 18.125 13.75 18.125Z" fill="currentColor"/>
<path d="M16.8 10.4L15.6358 11.3459L15.6421 11.3535L16.8 10.4ZM17.7667 9.59997L18.9207 8.64169L18.9131 8.63266L17.7667 9.59997ZM18.9667 12.9166L20.4667 12.921V12.9166H18.9667ZM13.75 16.625H9.58333V19.625H13.75V16.625ZM9.58333 16.625C7.53676 16.625 5.875 14.9632 5.875 12.9166H2.875C2.875 16.6201 5.87991 19.625 9.58333 19.625V16.625ZM5.875 12.9166C5.875 10.8701 7.53676 9.20831 9.58333 9.20831V6.20831C5.87991 6.20831 2.875 9.21322 2.875 12.9166H5.875ZM9.58333 9.20831H11.6667V6.20831H9.58333V9.20831ZM11.6667 9.20831C11.1799 9.20831 10.7917 8.82007 10.7917 8.33331H13.7917C13.7917 7.16322 12.8368 6.20831 11.6667 6.20831V9.20831ZM10.7917 8.33331C10.7917 7.84655 11.1799 7.45831 11.6667 7.45831V10.4583C12.8368 10.4583 13.7917 9.50341 13.7917 8.33331H10.7917ZM11.6667 7.45831H9.58333V10.4583H11.6667V7.45831ZM9.58333 7.45831C6.57157 7.45831 4.125 9.90489 4.125 12.9166H7.125C7.125 11.5617 8.22843 10.4583 9.58333 10.4583V7.45831ZM4.125 12.9166C4.125 15.9284 6.57157 18.375 9.58333 18.375V15.375C8.22843 15.375 7.125 14.2716 7.125 12.9166H4.125ZM9.58333 18.375H13.75V15.375H9.58333V18.375ZM13.75 18.375C16.7618 18.375 19.2083 15.9284 19.2083 12.9166H16.2083C16.2083 14.2716 15.1049 15.375 13.75 15.375V18.375ZM19.2083 12.9166C19.2083 11.6463 18.7587 10.4188 17.9579 9.44643L15.6421 11.3535C16.008 11.7978 16.2083 12.3537 16.2083 12.9166H19.2083ZM17.9642 9.4541C18.2585 9.81639 18.2143 10.3562 17.8506 10.6631L15.916 8.37022C15.019 9.12709 14.9081 10.4503 15.6358 11.3459L17.9642 9.4541ZM17.8506 10.6631C17.4559 10.9962 16.9053 10.9052 16.6202 10.5673L18.9131 8.63266C18.178 7.76145 16.8441 7.58716 15.916 8.37022L17.8506 10.6631ZM16.6126 10.5582C17.1649 11.2233 17.4667 12.0597 17.4667 12.9166H20.4667C20.4667 11.357 19.9184 9.84328 18.9207 8.64172L16.6126 10.5582ZM17.4667 12.9123C17.4607 14.9631 15.7957 16.625 13.75 16.625V19.625C17.4543 19.625 20.4559 16.6202 20.4667 12.921L17.4667 12.9123Z" fill="currentColor" mask="url(#path-2-inside-1_2069_9029)"/>
</svg>
