<svg width="40" height="40" viewBox="0 0 40 40" fill="none" xmlns="http://www.w3.org/2000/svg">
<mask id="mask0_225_12129" style="mask-type:alpha" maskUnits="userSpaceOnUse" x="0" y="0" width="40" height="40">
<path d="M20 0C31.0457 0 40 8.95431 40 20C40 31.0457 31.0457 40 20 40C8.9543 40 0 31.0457 0 20C0 8.95431 8.9543 0 20 0ZM20 34C27.732 34 34 27.732 34 20C34 12.268 27.732 6 20 6C12.268 6 6 12.268 6 20C6 27.732 12.268 34 20 34Z" fill="#C4C4C4"/>
</mask>
<g mask="url(#mask0_225_12129)">
<rect y="40" width="40" height="40" transform="rotate(-90 0 40)" fill="url(#paint0_angular_225_12129)"/>
<circle cx="37" cy="20" r="3" transform="rotate(-90 37 20)" fill="#635EFF"/>
</g>
<defs>
<radialGradient id="paint0_angular_225_12129" cx="0" cy="0" r="1" gradientUnits="userSpaceOnUse" gradientTransform="translate(20.75 60) rotate(90.7162) scale(20.0016)">
<stop stop-color="#605BFF"/>
<stop offset="1" stop-color="#605BFF" stop-opacity="0"/>
</radialGradient>
</defs>
</svg>
