<svg viewBox="0 0 20 20" fill="none" xmlns="http://www.w3.org/2000/svg">
<path d="M15 8.95833C14.6583 8.95833 14.375 8.675 14.375 8.33333V6.66666C14.375 4.04166 13.6333 2.29166 10 2.29166C6.36667 2.29166 5.625 4.04166 5.625 6.66666V8.33333C5.625 8.675 5.34167 8.95833 5 8.95833C4.65833 8.95833 4.375 8.675 4.375 8.33333V6.66666C4.375 4.25 4.95833 1.04166 10 1.04166C15.0417 1.04166 15.625 4.25 15.625 6.66666V8.33333C15.625 8.675 15.3417 8.95833 15 8.95833Z" fill="currentColor"/>
<mask id="path-2-inside-1_2099_26413" fill="white">
<path d="M10.0003 16.0417C8.50866 16.0417 7.29199 14.825 7.29199 13.3333C7.29199 11.8417 8.50866 10.625 10.0003 10.625C11.492 10.625 12.7087 11.8417 12.7087 13.3333C12.7087 14.825 11.492 16.0417 10.0003 16.0417ZM10.0003 11.875C9.20033 11.875 8.54199 12.5333 8.54199 13.3333C8.54199 14.1333 9.20033 14.7917 10.0003 14.7917C10.8003 14.7917 11.4587 14.1333 11.4587 13.3333C11.4587 12.5333 10.8003 11.875 10.0003 11.875Z"/>
</mask>
<path d="M10.0003 16.0417C8.50866 16.0417 7.29199 14.825 7.29199 13.3333C7.29199 11.8417 8.50866 10.625 10.0003 10.625C11.492 10.625 12.7087 11.8417 12.7087 13.3333C12.7087 14.825 11.492 16.0417 10.0003 16.0417ZM10.0003 11.875C9.20033 11.875 8.54199 12.5333 8.54199 13.3333C8.54199 14.1333 9.20033 14.7917 10.0003 14.7917C10.8003 14.7917 11.4587 14.1333 11.4587 13.3333C11.4587 12.5333 10.8003 11.875 10.0003 11.875Z" fill="currentColor"/>
<path d="M10.0003 14.5417C9.33709 14.5417 8.79199 13.9966 8.79199 13.3333H5.79199C5.79199 15.6534 7.68023 17.5417 10.0003 17.5417V14.5417ZM8.79199 13.3333C8.79199 12.6701 9.33709 12.125 10.0003 12.125V9.125C7.68023 9.125 5.79199 11.0132 5.79199 13.3333H8.79199ZM10.0003 12.125C10.6636 12.125 11.2087 12.6701 11.2087 13.3333H14.2087C14.2087 11.0132 12.3204 9.125 10.0003 9.125V12.125ZM11.2087 13.3333C11.2087 13.9966 10.6636 14.5417 10.0003 14.5417V17.5417C12.3204 17.5417 14.2087 15.6534 14.2087 13.3333H11.2087ZM10.0003 10.375C8.3719 10.375 7.04199 11.7049 7.04199 13.3333H10.042C10.042 13.3407 10.0402 13.3492 10.0374 13.3559C10.035 13.3614 10.0327 13.3639 10.0318 13.3648C10.0309 13.3657 10.0284 13.368 10.0229 13.3704C10.0162 13.3732 10.0077 13.375 10.0003 13.375V10.375ZM7.04199 13.3333C7.04199 14.9618 8.3719 16.2917 10.0003 16.2917V13.2917C10.0077 13.2917 10.0162 13.2935 10.0229 13.2963C10.0284 13.2987 10.0309 13.3009 10.0318 13.3018C10.0327 13.3027 10.035 13.3052 10.0374 13.3108C10.0402 13.3175 10.042 13.3259 10.042 13.3333H7.04199ZM10.0003 16.2917C11.6288 16.2917 12.9587 14.9618 12.9587 13.3333H9.95866C9.95866 13.3259 9.96046 13.3175 9.9633 13.3108C9.96568 13.3052 9.96793 13.3027 9.96883 13.3018C9.96974 13.3009 9.97221 13.2987 9.9778 13.2963C9.98447 13.2935 9.99292 13.2917 10.0003 13.2917V16.2917ZM12.9587 13.3333C12.9587 11.7049 11.6288 10.375 10.0003 10.375V13.375C9.99292 13.375 9.98447 13.3732 9.9778 13.3704C9.97221 13.368 9.96974 13.3657 9.96883 13.3648C9.96793 13.3639 9.96568 13.3614 9.9633 13.3559C9.96046 13.3492 9.95866 13.3407 9.95866 13.3333H12.9587Z" fill="currentColor" mask="url(#path-2-inside-1_2099_26413)"/>
<mask id="path-4-inside-2_2099_26413" fill="white">
<path d="M14.167 18.9583H5.83366C2.15866 18.9583 1.04199 17.8417 1.04199 14.1667V12.5C1.04199 8.825 2.15866 7.70834 5.83366 7.70834H14.167C17.842 7.70834 18.9587 8.825 18.9587 12.5V14.1667C18.9587 17.8417 17.842 18.9583 14.167 18.9583ZM5.83366 8.95834C2.85033 8.95834 2.29199 9.525 2.29199 12.5V14.1667C2.29199 17.1417 2.85033 17.7083 5.83366 17.7083H14.167C17.1503 17.7083 17.7087 17.1417 17.7087 14.1667V12.5C17.7087 9.525 17.1503 8.95834 14.167 8.95834H5.83366Z"/>
</mask>
<path d="M14.167 18.9583H5.83366C2.15866 18.9583 1.04199 17.8417 1.04199 14.1667V12.5C1.04199 8.825 2.15866 7.70834 5.83366 7.70834H14.167C17.842 7.70834 18.9587 8.825 18.9587 12.5V14.1667C18.9587 17.8417 17.842 18.9583 14.167 18.9583ZM5.83366 8.95834C2.85033 8.95834 2.29199 9.525 2.29199 12.5V14.1667C2.29199 17.1417 2.85033 17.7083 5.83366 17.7083H14.167C17.1503 17.7083 17.7087 17.1417 17.7087 14.1667V12.5C17.7087 9.525 17.1503 8.95834 14.167 8.95834H5.83366Z" fill="currentColor"/>
<path d="M14.167 17.4583H5.83366V20.4583H14.167V17.4583ZM5.83366 17.4583C4.04782 17.4583 3.40262 17.1622 3.12036 16.88C2.8381 16.5977 2.54199 15.9525 2.54199 14.1667H-0.458008C-0.458008 16.0558 -0.195783 17.8065 0.99904 19.0013C2.19386 20.1961 3.9445 20.4583 5.83366 20.4583V17.4583ZM2.54199 14.1667V12.5H-0.458008V14.1667H2.54199ZM2.54199 12.5C2.54199 10.7142 2.8381 10.069 3.12036 9.7867C3.40262 9.50444 4.04782 9.20834 5.83366 9.20834V6.20834C3.9445 6.20834 2.19386 6.47056 0.99904 7.66538C-0.195783 8.86021 -0.458008 10.6108 -0.458008 12.5H2.54199ZM5.83366 9.20834H14.167V6.20834H5.83366V9.20834ZM14.167 9.20834C15.9528 9.20834 16.598 9.50444 16.8803 9.7867C17.1626 10.069 17.4587 10.7142 17.4587 12.5H20.4587C20.4587 10.6108 20.1964 8.86021 19.0016 7.66538C17.8068 6.47056 16.0561 6.20834 14.167 6.20834V9.20834ZM17.4587 12.5V14.1667H20.4587V12.5H17.4587ZM17.4587 14.1667C17.4587 15.9525 17.1626 16.5977 16.8803 16.88C16.598 17.1622 15.9528 17.4583 14.167 17.4583V20.4583C16.0561 20.4583 17.8068 20.1961 19.0016 19.0013C20.1964 17.8065 20.4587 16.0558 20.4587 14.1667H17.4587ZM5.83366 7.45834C5.06135 7.45834 4.34067 7.49297 3.71187 7.62571C3.06635 7.76197 2.41213 8.0231 1.88234 8.55396C1.35271 9.08467 1.09308 9.73903 0.957833 10.3834C0.826063 11.0112 0.791992 11.7304 0.791992 12.5H3.79199C3.79199 11.7821 3.82771 11.3148 3.89386 10.9997C3.95653 10.7011 4.02294 10.656 4.00581 10.6731C3.98852 10.6905 4.03326 10.624 4.33149 10.561C4.64644 10.4945 5.1143 10.4583 5.83366 10.4583V7.45834ZM0.791992 12.5V14.1667H3.79199V12.5H0.791992ZM0.791992 14.1667C0.791992 14.9363 0.826063 15.6554 0.957833 16.2833C1.09308 16.9276 1.35271 17.582 1.88234 18.1127C2.41213 18.6436 3.06635 18.9047 3.71187 19.041C4.34067 19.1737 5.06135 19.2083 5.83366 19.2083V16.2083C5.1143 16.2083 4.64644 16.1721 4.33149 16.1057C4.03326 16.0427 3.98852 15.9762 4.00581 15.9935C4.02294 16.0107 3.95653 15.9656 3.89386 15.667C3.82771 15.3519 3.79199 14.8846 3.79199 14.1667H0.791992ZM5.83366 19.2083H14.167V16.2083H5.83366V19.2083ZM14.167 19.2083C14.9393 19.2083 15.66 19.1737 16.2888 19.041C16.9343 18.9047 17.5885 18.6436 18.1183 18.1127C18.6479 17.582 18.9076 16.9276 19.0428 16.2833C19.1746 15.6554 19.2087 14.9363 19.2087 14.1667H16.2087C16.2087 14.8846 16.1729 15.3519 16.1068 15.667C16.0441 15.9656 15.9777 16.0107 15.9948 15.9935C16.0121 15.9762 15.9674 16.0427 15.6692 16.1057C15.3542 16.1721 14.8864 16.2083 14.167 16.2083V19.2083ZM19.2087 14.1667V12.5H16.2087V14.1667H19.2087ZM19.2087 12.5C19.2087 11.7304 19.1746 11.0112 19.0428 10.3834C18.9076 9.73903 18.6479 9.08467 18.1183 8.55396C17.5885 8.0231 16.9343 7.76197 16.2888 7.62571C15.66 7.49297 14.9393 7.45834 14.167 7.45834V10.4583C14.8864 10.4583 15.3542 10.4945 15.6692 10.561C15.9674 10.624 16.0121 10.6905 15.9948 10.6731C15.9777 10.656 16.0441 10.7011 16.1068 10.9997C16.1729 11.3148 16.2087 11.7821 16.2087 12.5H19.2087ZM14.167 7.45834H5.83366V10.4583H14.167V7.45834Z" fill="currentColor" mask="url(#path-4-inside-2_2099_26413)"/>
</svg>
