<svg width="1em" height="1em" viewBox="0 0 18 18" fill="none" xmlns="http://www.w3.org/2000/svg">
<path d="M3.66469 15C3.49574 15 3.32679 14.9378 3.1934 14.8044C2.93553 14.5466 2.93553 14.1198 3.1934 13.862L13.864 3.19337C14.1219 2.93554 14.5487 2.93554 14.8066 3.19337C15.0645 3.45119 15.0645 3.87794 14.8066 4.13577L4.13598 14.8044C4.00259 14.9378 3.83364 15 3.66469 15Z" fill="currentColor"/>
<path d="M14.8977 7.3125C14.5343 7.3125 14.233 7.01114 14.233 6.64773V3.76705H11.3523C10.9889 3.76705 10.6875 3.46568 10.6875 3.10227C10.6875 2.73886 10.9889 2.4375 11.3523 2.4375H14.8977C15.2611 2.4375 15.5625 2.73886 15.5625 3.10227V6.64773C15.5625 7.01114 15.2611 7.3125 14.8977 7.3125Z" fill="currentColor"/>
<path d="M6.64773 15.5625H3.10227C2.73886 15.5625 2.4375 15.2611 2.4375 14.8977V11.3523C2.4375 10.9889 2.73886 10.6875 3.10227 10.6875C3.46568 10.6875 3.76705 10.9889 3.76705 11.3523V14.233H6.64773C7.01114 14.233 7.3125 14.5343 7.3125 14.8977C7.3125 15.2611 7.01114 15.5625 6.64773 15.5625Z" fill="currentColor"/>
</svg>
