<svg width="1em" height="1em" viewBox="0 0 18 18" fill="none" xmlns="http://www.w3.org/2000/svg">
<path d="M7.5 13.275H4.6575C1.8075 13.275 0.9375 12.405 0.9375 9.55496V5.05496C0.9375 2.20496 1.8075 1.33496 4.6575 1.33496H12.555C15.405 1.33496 16.275 2.20496 16.275 5.05496C16.275 5.36246 16.02 5.61746 15.7125 5.61746C15.405 5.61746 15.15 5.36246 15.15 5.05496C15.15 2.84996 14.76 2.45996 12.555 2.45996H4.6575C2.4525 2.45996 2.0625 2.84996 2.0625 5.05496V9.55496C2.0625 11.76 2.4525 12.15 4.6575 12.15H7.5C7.8075 12.15 8.0625 12.405 8.0625 12.7125C8.0625 13.02 7.8075 13.275 7.5 13.275Z" fill="currentColor"/>
<mask id="path-2-inside-1_1281_5799" fill="white">
<path d="M7.5 16.665C7.1925 16.665 6.9375 16.41 6.9375 16.1025V12.705C6.9375 12.3975 7.1925 12.1425 7.5 12.1425C7.8075 12.1425 8.0625 12.3975 8.0625 12.705V16.1025C8.0625 16.4175 7.8075 16.665 7.5 16.665Z"/>
</mask>
<path d="M7.5 16.665C7.1925 16.665 6.9375 16.41 6.9375 16.1025V12.705C6.9375 12.3975 7.1925 12.1425 7.5 12.1425C7.8075 12.1425 8.0625 12.3975 8.0625 12.705V16.1025C8.0625 16.4175 7.8075 16.665 7.5 16.665Z" fill="currentColor"/>
<path d="M7.5 15.165C8.02093 15.165 8.4375 15.5815 8.4375 16.1025H5.4375C5.4375 17.2384 6.36407 18.165 7.5 18.165V15.165ZM8.4375 16.1025V12.705H5.4375V16.1025H8.4375ZM8.4375 12.705C8.4375 13.2259 8.02093 13.6425 7.5 13.6425V10.6425C6.36407 10.6425 5.4375 11.569 5.4375 12.705H8.4375ZM7.5 13.6425C6.97907 13.6425 6.5625 13.2259 6.5625 12.705H9.5625C9.5625 11.569 8.63593 10.6425 7.5 10.6425V13.6425ZM6.5625 12.705V16.1025H9.5625V12.705H6.5625ZM6.5625 16.1025C6.5625 15.576 6.99214 15.165 7.5 15.165V18.165C8.62286 18.165 9.5625 17.2589 9.5625 16.1025H6.5625Z" fill="currentColor" mask="url(#path-2-inside-1_1281_5799)"/>
<mask id="path-4-inside-2_1281_5799" fill="white">
<path d="M7.5 10.275H1.5C1.1925 10.275 0.9375 10.02 0.9375 9.71252C0.9375 9.40502 1.1925 9.15002 1.5 9.15002H7.5C7.8075 9.15002 8.0625 9.40502 8.0625 9.71252C8.0625 10.02 7.8075 10.275 7.5 10.275Z"/>
</mask>
<path d="M7.5 10.275H1.5C1.1925 10.275 0.9375 10.02 0.9375 9.71252C0.9375 9.40502 1.1925 9.15002 1.5 9.15002H7.5C7.8075 9.15002 8.0625 9.40502 8.0625 9.71252C8.0625 10.02 7.8075 10.275 7.5 10.275Z" fill="currentColor"/>
<path d="M7.5 8.77502H1.5V11.775H7.5V8.77502ZM1.5 8.77502C2.02093 8.77502 2.4375 9.1916 2.4375 9.71252H-0.5625C-0.5625 10.8485 0.364073 11.775 1.5 11.775V8.77502ZM2.4375 9.71252C2.4375 10.2335 2.02093 10.65 1.5 10.65V7.65002C0.364073 7.65002 -0.5625 8.5766 -0.5625 9.71252H2.4375ZM1.5 10.65H7.5V7.65002H1.5V10.65ZM7.5 10.65C6.97907 10.65 6.5625 10.2335 6.5625 9.71252H9.5625C9.5625 8.5766 8.63593 7.65002 7.5 7.65002V10.65ZM6.5625 9.71252C6.5625 9.1916 6.97907 8.77502 7.5 8.77502V11.775C8.63593 11.775 9.5625 10.8485 9.5625 9.71252H6.5625Z" fill="currentColor" mask="url(#path-4-inside-2_1281_5799)"/>
<path d="M7.49969 16.665H5.05469C4.74719 16.665 4.49219 16.41 4.49219 16.1025C4.49219 15.795 4.74719 15.54 5.05469 15.54H7.49969C7.80719 15.54 8.06219 15.795 8.06219 16.1025C8.06219 16.41 7.80719 16.665 7.49969 16.665Z" fill="currentColor"/>
<path d="M14.28 16.665H11.6175C9.53996 16.665 8.83496 15.96 8.83496 13.8825V9.6C8.83496 7.5225 9.53996 6.8175 11.6175 6.8175H14.28C16.3575 6.8175 17.0625 7.5225 17.0625 9.6V13.8825C17.0625 15.9675 16.3575 16.665 14.28 16.665ZM11.6175 7.9425C10.1475 7.9425 9.95996 8.13 9.95996 9.6V13.8825C9.95996 15.3525 10.1475 15.54 11.6175 15.54H14.28C15.75 15.54 15.9375 15.3525 15.9375 13.8825V9.6C15.9375 8.13 15.75 7.9425 14.28 7.9425H11.6175Z" fill="currentColor"/>
<path d="M12.9746 14.2275C12.7796 14.2275 12.5846 14.1525 12.4421 14.01C12.3746 13.9425 12.3221 13.86 12.2846 13.77C12.2471 13.6725 12.2246 13.575 12.2246 13.4775C12.2246 13.2825 12.3071 13.0875 12.4421 12.9525C12.6146 12.78 12.8771 12.6975 13.1246 12.7425C13.1696 12.7575 13.2146 12.7725 13.2596 12.7875C13.3046 12.81 13.3496 12.8325 13.3871 12.855C13.4321 12.885 13.4696 12.915 13.5071 12.9525C13.6421 13.0875 13.7246 13.2825 13.7246 13.4775C13.7246 13.575 13.7021 13.6725 13.6646 13.77C13.6271 13.86 13.5746 13.9425 13.5071 14.01C13.4696 14.0475 13.4321 14.0775 13.3871 14.1C13.3496 14.13 13.3046 14.1525 13.2596 14.175C13.2146 14.19 13.1696 14.205 13.1246 14.2125C13.0721 14.2275 13.0271 14.2275 12.9746 14.2275Z" fill="currentColor"/>
</svg>
