<svg width="1em" height="1em" viewBox="0 0 24 24" fill="none" xmlns="http://www.w3.org/2000/svg">
<path d="M6.375 10.5C6.05859 10.5 5.78906 10.6113 5.56641 10.834C5.35547 11.0449 5.25 11.3086 5.25 11.625C5.25 11.9414 5.35547 12.2109 5.56641 12.4336C5.78906 12.6445 6.05859 12.75 6.375 12.75C6.69141 12.75 6.95508 12.6445 7.16602 12.4336C7.38867 12.2109 7.5 11.9414 7.5 11.625C7.5 11.3086 7.38867 11.0449 7.16602 10.834C6.95508 10.6113 6.69141 10.5 6.375 10.5ZM12 10.5C11.6836 10.5 11.4141 10.6113 11.1914 10.834C10.9805 11.0449 10.875 11.3086 10.875 11.625C10.875 11.9414 10.9805 12.2109 11.1914 12.4336C11.4141 12.6445 11.6836 12.75 12 12.75C12.3164 12.75 12.5801 12.6445 12.791 12.4336C13.0137 12.2109 13.125 11.9414 13.125 11.625C13.125 11.3086 13.0137 11.0449 12.791 10.834C12.5801 10.6113 12.3164 10.5 12 10.5ZM17.625 10.5C17.3086 10.5 17.0391 10.6113 16.8164 10.834C16.6055 11.0449 16.5 11.3086 16.5 11.625C16.5 11.9414 16.6055 12.2109 16.8164 12.4336C17.0391 12.6445 17.3086 12.75 17.625 12.75C17.9414 12.75 18.2051 12.6445 18.416 12.4336C18.6387 12.2109 18.75 11.9414 18.75 11.625C18.75 11.3086 18.6387 11.0449 18.416 10.834C18.2051 10.6113 17.9414 10.5 17.625 10.5Z" fill="currentColor"/>
</svg>
