<svg viewBox="0 0 17 17" fill="none" xmlns="http://www.w3.org/2000/svg">
<path d="M0.708333 12.7498C0.708333 12.3626 1.02944 12.0415 1.41667 12.0415C1.80389 12.0415 2.125 12.3626 2.125 12.7498C2.125 13.1371 1.80389 13.4582 1.41667 13.4582C1.02944 13.4582 0.708333 13.1371 0.708333 12.7498Z" fill="currentColor"/>
<path d="M0.708333 4.24984C0.708333 3.86262 1.02944 3.5415 1.41667 3.5415C1.80389 3.5415 2.125 3.86262 2.125 4.24984C2.125 4.63706 1.80389 4.95817 1.41667 4.95817C1.02944 4.95817 0.708333 4.63706 0.708333 4.24984Z" fill="currentColor"/>
<path d="M0.708333 8.49984C0.708333 8.11262 1.02944 7.7915 1.41667 7.7915C1.80389 7.7915 2.125 8.11262 2.125 8.49984C2.125 8.88706 1.80389 9.20817 1.41667 9.20817C1.02944 9.20817 0.708333 8.88706 0.708333 8.49984Z" fill="currentColor"/>
<path d="M3.5415 8.49984C3.5415 8.11261 3.78885 7.7915 4.08711 7.7915L15.7459 7.7915C16.0442 7.7915 16.2915 8.11262 16.2915 8.49984C16.2915 8.88706 16.0442 9.20817 15.7459 9.20817L4.08711 9.20817C3.78885 9.20817 3.5415 8.88706 3.5415 8.49984Z" fill="currentColor"/>
<path d="M3.54175 12.7498C3.54175 12.3626 3.78909 12.0415 4.08736 12.0415L15.7461 12.0415C16.0444 12.0415 16.2917 12.3626 16.2917 12.7498C16.2917 13.1371 16.0444 13.4582 15.7461 13.4582L4.08736 13.4582C3.78909 13.4582 3.54175 13.1371 3.54175 12.7498Z" fill="currentColor"/>
<path d="M3.54175 4.24984C3.54175 3.86261 3.78909 3.5415 4.08736 3.5415L15.7461 3.5415C16.0444 3.5415 16.2917 3.86262 16.2917 4.24984C16.2917 4.63706 16.0444 4.95817 15.7461 4.95817L4.08736 4.95817C3.78909 4.95817 3.54175 4.63706 3.54175 4.24984Z" fill="currentColor"/>
</svg>
