<svg viewBox="0 0 18 18" fill="none" xmlns="http://www.w3.org/2000/svg">
<rect x="0.5" y="0.5" width="17" height="17" rx="5.5" stroke="currentColor"/>
<path d="M6.19819 11.0803V11.5677H3.32207V11.0803H4.47177V7.5791C4.47177 7.47398 4.47551 7.36766 4.483 7.26015L3.52804 8.04497C3.49558 8.07125 3.46313 8.08797 3.43067 8.09514C3.39821 8.09991 3.36825 8.09991 3.34079 8.09514C3.31333 8.09036 3.28711 8.0808 3.26215 8.06647C3.23968 8.05213 3.2222 8.0366 3.20972 8.01988L3 7.74394L4.59909 6.42159H5.14211V11.0803H6.19819Z" fill="currentColor"/>
<path d="M10.4268 10.962C10.4992 10.962 10.5567 10.9823 10.5991 11.023C10.6415 11.0636 10.6628 11.1161 10.6628 11.1806V11.5677H7.08258V11.3491C7.08258 11.3037 7.09257 11.2571 7.11254 11.2093C7.13252 11.1615 7.16372 11.1173 7.20617 11.0767L8.9251 9.42466C9.06741 9.28609 9.19723 9.1535 9.31458 9.02688C9.43192 8.89787 9.53178 8.76886 9.61417 8.63985C9.69656 8.51084 9.76023 8.38063 9.80517 8.24923C9.8501 8.11544 9.87257 7.97329 9.87257 7.82278C9.87257 7.67227 9.84761 7.54087 9.79768 7.42858C9.74774 7.31391 9.67909 7.21954 9.5917 7.14548C9.50682 7.07142 9.4057 7.01647 9.28836 6.98063C9.17102 6.94241 9.04494 6.92329 8.91012 6.92329C8.77281 6.92329 8.64673 6.94241 8.53188 6.98063C8.41704 7.01886 8.31467 7.07261 8.22479 7.14189C8.13741 7.20879 8.06376 7.28882 8.00384 7.382C7.94392 7.47517 7.90148 7.5779 7.87651 7.69019C7.84655 7.77381 7.80536 7.82995 7.75293 7.85862C7.703 7.8849 7.63184 7.89207 7.53947 7.88012L7.19119 7.82278C7.22614 7.58865 7.29355 7.382 7.39342 7.20282C7.49578 7.02125 7.62311 6.86954 7.7754 6.7477C7.93019 6.62585 8.1062 6.53387 8.30344 6.47176C8.50067 6.40725 8.71414 6.375 8.94383 6.375C9.17102 6.375 9.38323 6.40725 9.58047 6.47176C9.7777 6.53626 9.94872 6.63063 10.0935 6.75486C10.2383 6.87671 10.3519 7.02602 10.4343 7.20282C10.5167 7.37961 10.5579 7.58029 10.5579 7.80486C10.5579 7.99599 10.5279 8.17398 10.468 8.33882C10.4081 8.50128 10.327 8.65657 10.2246 8.80469C10.1222 8.95282 10.0036 9.09735 9.86883 9.23831C9.73651 9.37927 9.59545 9.52142 9.44565 9.66476L8.03006 11.048C8.12992 11.0218 8.23104 11.0015 8.3334 10.9871C8.43576 10.9704 8.53438 10.962 8.62925 10.962H10.4268Z" fill="currentColor"/>
<path d="M11.5621 7.82278C11.5971 7.58865 11.6645 7.382 11.7644 7.20282C11.8642 7.02125 11.9903 6.86954 12.1426 6.7477C12.2974 6.62585 12.4734 6.53387 12.6706 6.47176C12.8704 6.40725 13.0851 6.375 13.3148 6.375C13.542 6.375 13.7517 6.40606 13.9439 6.46817C14.1362 6.53029 14.3009 6.61869 14.4383 6.73336C14.5781 6.84804 14.6867 6.9866 14.7641 7.14906C14.8415 7.31152 14.8802 7.49189 14.8802 7.69019C14.8802 7.85265 14.8577 7.99838 14.8128 8.12739C14.7703 8.25401 14.7079 8.3651 14.6255 8.46067C14.5456 8.55623 14.4482 8.63746 14.3334 8.70435C14.2186 8.77125 14.09 8.82619 13.9477 8.8692C14.2972 8.9552 14.5593 9.10333 14.7341 9.31357C14.9114 9.52142 15 9.78183 15 10.0948C15 10.3313 14.9526 10.5439 14.8577 10.7327C14.7653 10.9214 14.638 11.0827 14.4757 11.2165C14.3134 11.3479 14.1237 11.4494 13.9065 11.5211C13.6918 11.5904 13.4608 11.625 13.2137 11.625C12.929 11.625 12.6856 11.5916 12.4834 11.5247C12.2812 11.4554 12.1101 11.361 11.9703 11.2416C11.8305 11.1221 11.7157 10.9811 11.6258 10.8187C11.5359 10.6538 11.4598 10.4759 11.3974 10.2847L11.6857 10.1701C11.7606 10.139 11.833 10.1306 11.9029 10.145C11.9753 10.1593 12.0278 10.1987 12.0602 10.2632C12.0927 10.3301 12.1326 10.4102 12.18 10.5033C12.23 10.5965 12.2974 10.6861 12.3823 10.7721C12.4672 10.8581 12.5745 10.931 12.7043 10.9907C12.8367 11.0504 13.0039 11.0803 13.2062 11.0803C13.3934 11.0803 13.5569 11.0516 13.6968 10.9943C13.8391 10.9346 13.9564 10.8581 14.0488 10.7649C14.1437 10.6718 14.2148 10.5678 14.2622 10.4532C14.3097 10.3385 14.3334 10.225 14.3334 10.1127C14.3334 9.97415 14.3147 9.84753 14.2772 9.73285C14.2398 9.61817 14.1699 9.51903 14.0675 9.43541C13.9651 9.35179 13.8241 9.28609 13.6443 9.23831C13.4671 9.19053 13.2386 9.16664 12.959 9.16664V8.70435C13.1887 8.70196 13.3834 8.67807 13.5432 8.63268C13.7055 8.58729 13.8366 8.52517 13.9364 8.44633C14.0388 8.36749 14.1124 8.27312 14.1574 8.16323C14.2048 8.05333 14.2285 7.93148 14.2285 7.7977C14.2285 7.64957 14.2036 7.52056 14.1536 7.41067C14.1062 7.30077 14.04 7.20998 13.9552 7.13831C13.8703 7.06664 13.7692 7.01288 13.6518 6.97705C13.537 6.94121 13.4121 6.92329 13.2773 6.92329C13.1425 6.92329 13.0164 6.94241 12.8991 6.98063C12.7842 7.01886 12.6819 7.07261 12.592 7.14189C12.5046 7.20879 12.431 7.28882 12.371 7.382C12.3111 7.47517 12.2687 7.5779 12.2437 7.69019C12.2113 7.77381 12.1701 7.82995 12.1201 7.85862C12.0727 7.8849 12.0028 7.89207 11.9104 7.88012L11.5621 7.82278Z" fill="currentColor"/>
</svg>
