<svg viewBox="0 0 17 17" fill="none" xmlns="http://www.w3.org/2000/svg">
<path d="M10.625 14.6978L10.625 1.94775C10.625 1.65734 10.8658 1.4165 11.1562 1.4165C11.4467 1.4165 11.6875 1.65734 11.6875 1.94775L11.6875 14.6978C11.6875 14.9882 11.4467 15.229 11.1562 15.229C10.8658 15.229 10.625 14.9882 10.625 14.6978Z" fill="currentColor"/>
<path d="M4.95825 14.6978L4.95825 1.94775C4.95825 1.65734 5.19909 1.4165 5.4895 1.4165C5.77992 1.4165 6.02075 1.65734 6.02075 1.94775L6.02075 14.6978C6.02075 14.9882 5.77992 15.229 5.4895 15.229C5.19908 15.229 4.95825 14.9882 4.95825 14.6978Z" fill="currentColor"/>
<path d="M14.875 6.021H2.125C1.83458 6.021 1.59375 5.78016 1.59375 5.48975C1.59375 5.19933 1.83458 4.9585 2.125 4.9585H14.875C15.1654 4.9585 15.4062 5.19933 15.4062 5.48975C15.4062 5.78016 15.1654 6.021 14.875 6.021Z" fill="currentColor"/>
<path d="M14.875 12.042H2.125C1.83458 12.042 1.59375 11.8012 1.59375 11.5107C1.59375 11.2203 1.83458 10.9795 2.125 10.9795H14.875C15.1654 10.9795 15.4062 11.2203 15.4062 11.5107C15.4062 11.8012 15.1654 12.042 14.875 12.042Z" fill="currentColor"/>
</svg>
