<svg width="1em" height="1em" viewBox="0 0 17 17" fill="none" xmlns="http://www.w3.org/2000/svg">
<path d="M13.4566 1.9496C13.5912 1.9496 13.7258 1.99919 13.832 2.10544C14.0374 2.31085 14.0374 2.65086 13.832 2.85627L3.91536 12.7729C3.70994 12.9784 3.36994 12.9784 3.16452 12.7729C2.9591 12.5675 2.9591 12.2275 3.16452 12.0221L13.0812 2.10544C13.1874 1.99919 13.322 1.9496 13.4566 1.9496Z" fill="currentColor"/>
<path d="M6.18196 1.94954H13.4565C13.747 1.94954 13.9878 2.19037 13.9878 2.48079V9.75537C13.9878 10.0458 13.747 10.2866 13.4565 10.2866C13.1661 10.2866 12.9253 10.0458 12.9253 9.75537V3.01204H6.18196C5.89154 3.01204 5.65071 2.7712 5.65071 2.48079C5.65071 2.19037 5.89154 1.94954 6.18196 1.94954Z" fill="currentColor"/>
<path d="M14.5209 16.1145H2.47925C2.18883 16.1145 1.948 15.8737 1.948 15.5833C1.948 15.2928 2.18883 15.052 2.47925 15.052H14.5209C14.8113 15.052 15.0522 15.2928 15.0522 15.5833C15.0522 15.8737 14.8113 16.1145 14.5209 16.1145Z" fill="currentColor"/>
</svg>
