<svg viewBox="0 0 17 17" fill="none" xmlns="http://www.w3.org/2000/svg">
<path d="M15.5622 12.9836C15.5622 13.2386 15.5055 13.5007 15.3851 13.7557C15.2647 14.0107 15.1088 14.2515 14.9034 14.4782C14.5563 14.8607 14.1738 15.1369 13.7417 15.314C13.3167 15.4911 12.8563 15.5832 12.3605 15.5832C11.638 15.5832 10.8659 15.4132 10.0513 15.0661C9.23675 14.719 8.42216 14.2515 7.61466 13.6636C6.80008 13.0686 6.028 12.4098 5.29133 11.6803C4.56175 10.9436 3.903 10.1715 3.31508 9.364C2.73425 8.5565 2.26675 7.749 1.92675 6.94859C1.58675 6.14109 1.41675 5.369 1.41675 4.63234C1.41675 4.15067 1.50175 3.69025 1.67175 3.26525C1.84175 2.83317 2.11091 2.4365 2.48633 2.08234C2.93966 1.63609 3.4355 1.4165 3.95966 1.4165C4.158 1.4165 4.35633 1.459 4.53341 1.544C4.71758 1.629 4.8805 1.7565 5.008 1.94067L6.65133 4.25692C6.77883 4.434 6.87091 4.59692 6.93466 4.75275C6.99841 4.9015 7.03383 5.05025 7.03383 5.18484C7.03383 5.35484 6.98425 5.52484 6.88508 5.68775C6.793 5.85067 6.65841 6.02067 6.48841 6.19067L5.95008 6.75025C5.87216 6.82817 5.83675 6.92025 5.83675 7.03359C5.83675 7.09025 5.84383 7.13984 5.858 7.1965C5.87925 7.25317 5.9005 7.29567 5.91466 7.33817C6.04216 7.57192 6.26175 7.8765 6.57341 8.24484C6.89216 8.61317 7.23216 8.98859 7.6005 9.364C7.983 9.73942 8.35133 10.0865 8.72675 10.4053C9.09508 10.7169 9.39966 10.9294 9.6405 11.0569C9.67591 11.0711 9.71841 11.0923 9.768 11.1136C9.82466 11.1348 9.88133 11.1419 9.94508 11.1419C10.0655 11.1419 10.1576 11.0994 10.2355 11.0215L10.7738 10.4903C10.9509 10.3132 11.1209 10.1786 11.2838 10.0936C11.4467 9.99442 11.6097 9.94484 11.7867 9.94484C11.9213 9.94484 12.063 9.97317 12.2188 10.0369C12.3747 10.1007 12.5376 10.1928 12.7147 10.3132L15.0592 11.9778C15.2434 12.1053 15.3709 12.254 15.4488 12.4311C15.5197 12.6082 15.5622 12.7853 15.5622 12.9836Z" fill="currentColor"/>
</svg>
