<svg width="1em" height="1em" viewBox="0 0 100 100" fill="none" xmlns="http://www.w3.org/2000/svg">
<circle cx="50" cy="50" r="50" fill="url(#paint0_linear_261_15388)" fill-opacity="0.2"/>
<g filter="url(#filter0_d_261_15388)">
<path d="M60.08 56.9C60.95 57.77 60.95 59.21 60.08 60.08C59.63 60.53 59.06 60.74 58.49 60.74C57.92 60.74 57.35 60.53 56.9 60.08L50 53.18L43.1 60.08C42.65 60.53 42.08 60.74 41.51 60.74C40.94 60.74 40.37 60.53 39.92 60.08C39.05 59.21 39.05 57.77 39.92 56.9L46.82 50L39.92 43.1C39.05 42.23 39.05 40.79 39.92 39.92C40.79 39.05 42.23 39.05 43.1 39.92L50 46.82L56.9 39.92C57.77 39.05 59.21 39.05 60.08 39.92C60.95 40.79 60.95 42.23 60.08 43.1L53.18 50L60.08 56.9Z" fill="white"/>
<path fill-rule="evenodd" clip-rule="evenodd" d="M50 20C33.47 20 20 33.47 20 50C20 66.53 33.47 80 50 80C66.53 80 80 66.53 80 50C80 33.47 66.53 20 50 20ZM60.08 60.08C60.95 59.21 60.95 57.77 60.08 56.9L53.18 50L60.08 43.1C60.95 42.23 60.95 40.79 60.08 39.92C59.21 39.05 57.77 39.05 56.9 39.92L50 46.82L43.1 39.92C42.23 39.05 40.79 39.05 39.92 39.92C39.05 40.79 39.05 42.23 39.92 43.1L46.82 50L39.92 56.9C39.05 57.77 39.05 59.21 39.92 60.08C40.37 60.53 40.94 60.74 41.51 60.74C42.08 60.74 42.65 60.53 43.1 60.08L50 53.18L56.9 60.08C57.35 60.53 57.92 60.74 58.49 60.74C59.06 60.74 59.63 60.53 60.08 60.08Z" fill="currentColor"/>
</g>
<defs>
<filter id="filter0_d_261_15388" x="12" y="16" width="76" height="76" filterUnits="userSpaceOnUse" color-interpolation-filters="sRGB">
<feFlood flood-opacity="0" result="BackgroundImageFix"/>
<feColorMatrix in="SourceAlpha" type="matrix" values="0 0 0 0 0 0 0 0 0 0 0 0 0 0 0 0 0 0 127 0" result="hardAlpha"/>
<feOffset dy="4"/>
<feGaussianBlur stdDeviation="4"/>
<feComposite in2="hardAlpha" operator="out"/>
<feColorMatrix type="matrix" values="0 0 0 0 0.133333 0 0 0 0 0.133333 0 0 0 0 0.133333 0 0 0 0.15 0"/>
<feBlend mode="normal" in2="BackgroundImageFix" result="effect1_dropShadow_261_15388"/>
<feBlend mode="normal" in="SourceGraphic" in2="effect1_dropShadow_261_15388" result="shape"/>
</filter>
<linearGradient id="paint0_linear_261_15388" x1="93" y1="24" x2="6" y2="81.5" gradientUnits="userSpaceOnUse">
<stop stop-color="currentColor"/>
<stop offset="1" stop-color="currentColor" stop-opacity="0"/>
</linearGradient>
</defs>
</svg>