<svg width="1em" height="1em" viewBox="0 0 24 24" fill="none" xmlns="http://www.w3.org/2000/svg">
<circle cx="12" cy="12" r="12" fill="url(#paint0_linear_3804_384028)" fill-opacity="0.2"/>
<path d="M11.9998 4.79999C8.0326 4.79999 4.7998 8.03279 4.7998 12C4.7998 15.9672 8.0326 19.2 11.9998 19.2C15.967 19.2 19.1998 15.9672 19.1998 12C19.1998 8.03279 15.967 4.79999 11.9998 4.79999ZM15.4414 10.344L11.359 14.4264C11.2582 14.5272 11.1214 14.5848 10.9774 14.5848C10.8334 14.5848 10.6966 14.5272 10.5958 14.4264L8.5582 12.3888C8.3494 12.18 8.3494 11.8344 8.5582 11.6256C8.767 11.4168 9.1126 11.4168 9.3214 11.6256L10.9774 13.2816L14.6782 9.58079C14.887 9.37199 15.2326 9.37199 15.4414 9.58079C15.6502 9.78959 15.6502 10.128 15.4414 10.344Z" fill="currentColor"/>
<defs>
<linearGradient id="paint0_linear_3804_384028" x1="22.32" y1="5.76" x2="1.44" y2="19.56" gradientUnits="userSpaceOnUse">
<stop stop-color="currentColor"/>
<stop offset="1" stop-color="currentColor" stop-opacity="0"/>
</linearGradient>
</defs>
</svg>
