<svg width="1em" height="1em" viewBox="0 0 24 24" fill="none" xmlns="http://www.w3.org/2000/svg">
<path d="M15 22.25H9C6.3424 22.25 4.56492 21.6803 3.4423 20.5577C2.31968 19.4351 1.75 17.6576 1.75 15V9C1.75 6.3424 2.31968 4.56492 3.4423 3.4423C4.56492 2.31968 6.3424 1.75 9 1.75H15C17.6576 1.75 19.4351 2.31968 20.5577 3.4423C21.6803 4.56492 22.25 6.3424 22.25 9V15C22.25 17.6576 21.6803 19.4351 20.5577 20.5577C19.4351 21.6803 17.6576 22.25 15 22.25ZM9 2.25C6.65972 2.25 4.92432 2.66107 3.7927 3.7927C2.66107 4.92432 2.25 6.65972 2.25 9V15C2.25 17.3403 2.66107 19.0757 3.7927 20.2073C4.92432 21.3389 6.65972 21.75 9 21.75H15C17.3403 21.75 19.0757 21.3389 20.2073 20.2073C21.3389 19.0757 21.75 17.3403 21.75 15V9C21.75 6.65972 21.3389 4.92432 20.2073 3.7927C19.0757 2.66107 17.3403 2.25 15 2.25H9Z" fill="currentColor" stroke="currentColor"/>
<path d="M12.353 7.21647L11.9995 6.86292L11.6459 7.21647L9.1759 9.68646L9.52945 10.04L9.1759 9.68646C9.08116 9.78119 8.91774 9.78119 8.82301 9.68646C8.72827 9.59172 8.72827 9.4283 8.82301 9.33357L11.823 6.33357C11.9177 6.23883 12.0812 6.23883 12.1759 6.33357L15.1759 9.33357C15.2706 9.4283 15.2706 9.59172 15.1759 9.68646C15.1246 9.73775 15.064 9.76001 14.9995 9.76001C14.9349 9.76001 14.8743 9.73775 14.823 9.68646L14.4695 10.04L14.823 9.68646L12.353 7.21647Z" fill="currentColor" stroke="currentColor"/>
<path d="M12 15.26C11.59 15.26 11.25 14.92 11.25 14.51V6.51001C11.25 6.10001 11.59 5.76001 12 5.76001C12.41 5.76001 12.75 6.10001 12.75 6.51001V14.51C12.75 14.93 12.41 15.26 12 15.26Z" fill="currentColor"/>
<path d="M12.0004 18.23C9.89044 18.23 7.77043 17.89 5.76043 17.22C5.37043 17.09 5.16043 16.66 5.29043 16.27C5.42043 15.88 5.85045 15.66 6.24045 15.8C9.96045 17.04 14.0504 17.04 17.7704 15.8C18.1604 15.67 18.5904 15.88 18.7204 16.27C18.8504 16.66 18.6404 17.09 18.2504 17.22C16.2304 17.9 14.1104 18.23 12.0004 18.23Z" fill="currentColor"/>
</svg>
