<svg width="1em" height="1em" viewBox="0 0 17 17" fill="none" xmlns="http://www.w3.org/2000/svg">
<path d="M8.5 11.1562C7.03375 11.1562 5.84375 9.96625 5.84375 8.5C5.84375 7.03375 7.03375 5.84375 8.5 5.84375C9.96625 5.84375 11.1562 7.03375 11.1562 8.5C11.1562 9.96625 9.96625 11.1562 8.5 11.1562ZM8.5 6.90625C7.62167 6.90625 6.90625 7.62167 6.90625 8.5C6.90625 9.37833 7.62167 10.0938 8.5 10.0938C9.37833 10.0938 10.0938 9.37833 10.0938 8.5C10.0938 7.62167 9.37833 6.90625 8.5 6.90625Z" fill="currentColor"/>
<path d="M10.7741 15.718C10.6253 15.718 10.4766 15.6967 10.3278 15.6613C9.88866 15.5409 9.52032 15.2646 9.28658 14.875L9.20158 14.7334C8.78366 14.0109 8.20991 14.0109 7.79199 14.7334L7.71408 14.868C7.48033 15.2646 7.11199 15.548 6.67283 15.6613C6.22658 15.7817 5.76616 15.718 5.37658 15.4842L4.15824 14.783C3.72616 14.535 3.41449 14.1313 3.27991 13.6425C3.15241 13.1538 3.21616 12.6509 3.46408 12.2188C3.66949 11.8575 3.72616 11.5317 3.60574 11.3263C3.48533 11.1209 3.18074 11.0005 2.76283 11.0005C1.72866 11.0005 0.885742 10.1575 0.885742 9.12337V7.87671C0.885742 6.84254 1.72866 5.99962 2.76283 5.99962C3.18074 5.99962 3.48533 5.87921 3.60574 5.67379C3.72616 5.46837 3.67658 5.14254 3.46408 4.78129C3.21616 4.34921 3.15241 3.83921 3.27991 3.35754C3.40741 2.86879 3.71908 2.46504 4.15824 2.21712L5.38366 1.51587C6.18408 1.04129 7.23949 1.31754 7.72116 2.13212L7.80616 2.27379C8.22408 2.99629 8.79783 2.99629 9.21574 2.27379L9.29366 2.13921C9.77532 1.31754 10.8307 1.04129 11.6382 1.52296L12.8566 2.22421C13.2887 2.47212 13.6003 2.87587 13.7349 3.36462C13.8624 3.85337 13.7987 4.35629 13.5507 4.78837C13.3453 5.14962 13.2887 5.47546 13.4091 5.68087C13.5295 5.88629 13.8341 6.00671 14.252 6.00671C15.2862 6.00671 16.1291 6.84962 16.1291 7.88379V9.13046C16.1291 10.1646 15.2862 11.0075 14.252 11.0075C13.8341 11.0075 13.5295 11.128 13.4091 11.3334C13.2887 11.5388 13.3382 11.8646 13.5507 12.2259C13.7987 12.658 13.8695 13.168 13.7349 13.6496C13.6074 14.1384 13.2957 14.5421 12.8566 14.79L11.6312 15.4913C11.362 15.64 11.0716 15.718 10.7741 15.718ZM8.50033 13.0971C9.13074 13.0971 9.71866 13.4938 10.1224 14.195L10.2003 14.3296C10.2853 14.4784 10.427 14.5846 10.597 14.6271C10.767 14.6696 10.937 14.6484 11.0787 14.5634L12.3041 13.855C12.4882 13.7488 12.6299 13.5717 12.6866 13.3592C12.7432 13.1467 12.7149 12.9271 12.6087 12.743C12.2049 12.0488 12.1553 11.3334 12.467 10.788C12.7787 10.2425 13.4232 9.93087 14.2307 9.93087C14.6841 9.93087 15.0453 9.56962 15.0453 9.11629V7.86962C15.0453 7.42337 14.6841 7.05504 14.2307 7.05504C13.4232 7.05504 12.7787 6.74337 12.467 6.19796C12.1553 5.65254 12.2049 4.93712 12.6087 4.24296C12.7149 4.05879 12.7432 3.83921 12.6866 3.62671C12.6299 3.41421 12.4953 3.24421 12.3112 3.13087L11.0857 2.42962C10.7812 2.24546 10.3774 2.35171 10.1932 2.66337L10.1153 2.79796C9.71158 3.49921 9.12366 3.89587 8.49324 3.89587C7.86283 3.89587 7.27491 3.49921 6.87116 2.79796L6.79324 2.65629C6.61616 2.35879 6.21949 2.25254 5.91491 2.42962L4.68949 3.13796C4.50533 3.24421 4.36366 3.42129 4.30699 3.63379C4.25033 3.84629 4.27866 4.06587 4.38491 4.25004C4.78866 4.94421 4.83824 5.65962 4.52658 6.20504C4.21491 6.75046 3.57033 7.06212 2.76283 7.06212C2.30949 7.06212 1.94824 7.42337 1.94824 7.87671V9.12337C1.94824 9.56962 2.30949 9.93796 2.76283 9.93796C3.57033 9.93796 4.21491 10.2496 4.52658 10.795C4.83824 11.3405 4.78866 12.0559 4.38491 12.75C4.27866 12.9342 4.25033 13.1538 4.30699 13.3663C4.36366 13.5788 4.49824 13.7488 4.68241 13.8621L5.90783 14.5634C6.05658 14.6555 6.23366 14.6767 6.39657 14.6342C6.56658 14.5917 6.70824 14.4784 6.80033 14.3296L6.87824 14.195C7.28199 13.5009 7.86991 13.0971 8.50033 13.0971Z" fill="currentColor"/>
</svg>
