<svg width="1em" height="1em" viewBox="0 0 18 18" fill="none" xmlns="http://www.w3.org/2000/svg">
<path d="M11.25 16.5625H6.75C4.77115 16.5625 3.47805 16.1378 2.67012 15.3299C1.86218 14.522 1.4375 13.2289 1.4375 11.25V6.75C1.4375 4.77115 1.86218 3.47805 2.67012 2.67012C3.47805 1.86218 4.77115 1.4375 6.75 1.4375H11.25C13.2289 1.4375 14.522 1.86218 15.3299 2.67012C16.1378 3.47805 16.5625 4.77115 16.5625 6.75V11.25C16.5625 13.2289 16.1378 14.522 15.3299 15.3299C14.522 16.1378 13.2289 16.5625 11.25 16.5625ZM6.75 1.5625C4.98597 1.5625 3.6412 1.87107 2.75613 2.75613C1.87107 3.6412 1.5625 4.98597 1.5625 6.75V11.25C1.5625 13.014 1.87107 14.3588 2.75613 15.2439C3.6412 16.1289 4.98597 16.4375 6.75 16.4375H11.25C13.014 16.4375 14.3588 16.1289 15.2439 15.2439C16.1289 14.3588 16.4375 13.014 16.4375 11.25V6.75C16.4375 4.98597 16.1289 3.6412 15.2439 2.75613C14.3588 1.87107 13.014 1.5625 11.25 1.5625H6.75Z" fill="currentColor" stroke="currentColor"/>
<path d="M3.56252 11.6851C3.56252 11.3776 3.81752 11.1226 4.12502 11.1226L7.05002 11.1226C7.35752 11.1226 7.61252 11.3776 7.61252 11.6851C7.61252 11.9926 7.35752 12.2476 7.05002 12.2476L4.12502 12.2476C3.81752 12.2476 3.56252 11.9926 3.56252 11.6851Z" fill="currentColor"/>
<path d="M11.85 11.6851C11.85 11.3776 12.105 11.1226 12.4125 11.1226L13.875 11.1226C14.1825 11.1226 14.4375 11.3776 14.4375 11.6851C14.4375 11.9926 14.1825 12.2476 13.875 12.2476L12.4125 12.2476C12.105 12.2476 11.85 11.9926 11.85 11.6851Z" fill="currentColor"/>
<path d="M7.94997 11.685C7.94997 10.2975 9.07497 9.17249 10.4625 9.17249C11.85 9.17249 12.975 10.2975 12.975 11.685C12.975 13.0725 11.85 14.1975 10.4625 14.1975C9.07497 14.1975 7.94997 13.065 7.94997 11.685ZM11.85 11.685C11.85 10.92 11.2275 10.2975 10.4625 10.2975C9.69747 10.2975 9.07497 10.92 9.07497 11.685C9.07497 12.45 9.69747 13.0725 10.4625 13.0725C11.2275 13.0725 11.85 12.4425 11.85 11.685Z" fill="currentColor"/>
<path d="M3.56252 6.31494C3.56252 6.00744 3.81752 5.75244 4.12502 5.75244L5.58753 5.75244C5.89503 5.75244 6.15002 6.00744 6.15002 6.31494C6.15002 6.62244 5.89503 6.87744 5.58753 6.87744L4.12502 6.87744C3.81752 6.87744 3.56252 6.62994 3.56252 6.31494Z" fill="currentColor"/>
<path d="M10.3875 6.31494C10.3875 6.00744 10.6425 5.75244 10.95 5.75244L13.875 5.75244C14.1825 5.75244 14.4375 6.00744 14.4375 6.31494C14.4375 6.62244 14.1825 6.87744 13.875 6.87744L10.95 6.87744C10.6425 6.87744 10.3875 6.62994 10.3875 6.31494Z" fill="currentColor"/>
<path d="M5.02502 6.31487C5.02502 4.92737 6.15002 3.80237 7.53752 3.80237C8.92502 3.80237 10.05 4.92737 10.05 6.31487C10.05 7.70237 8.92502 8.82737 7.53752 8.82737C6.15002 8.82737 5.02502 7.70237 5.02502 6.31487ZM8.92502 6.31487C8.92502 5.54987 8.30252 4.92737 7.53752 4.92737C6.77252 4.92737 6.15002 5.54987 6.15002 6.31487C6.15002 7.07987 6.77252 7.70237 7.53752 7.70237C8.30252 7.70237 8.92502 7.08737 8.92502 6.31487Z" fill="currentColor"/>
</svg>
