<svg width="1em" height="1em" viewBox="0 0 17 17" fill="none" xmlns="http://www.w3.org/2000/svg">
<path d="M0.708334 12.7501C0.708334 12.3629 1.02944 12.0417 1.41667 12.0417C1.80389 12.0417 2.125 12.3629 2.125 12.7501C2.125 13.1373 1.80389 13.4584 1.41667 13.4584C1.02944 13.4584 0.708334 13.1373 0.708334 12.7501Z" fill="currentColor"/>
<path d="M0.708334 4.25008C0.708334 3.86286 1.02944 3.54175 1.41667 3.54175C1.80389 3.54175 2.125 3.86286 2.125 4.25008C2.125 4.6373 1.80389 4.95841 1.41667 4.95841C1.02944 4.95841 0.708334 4.6373 0.708334 4.25008Z" fill="currentColor"/>
<path d="M0.708333 8.50008C0.708333 8.11286 1.02944 7.79175 1.41667 7.79175C1.80389 7.79175 2.125 8.11286 2.125 8.50008C2.125 8.8873 1.80389 9.20842 1.41667 9.20842C1.02944 9.20842 0.708333 8.8873 0.708333 8.50008Z" fill="currentColor"/>
<path d="M3.5415 8.50008C3.5415 8.11286 3.78885 7.79175 4.08711 7.79175L15.7459 7.79175C16.0442 7.79175 16.2915 8.11286 16.2915 8.50008C16.2915 8.8873 16.0442 9.20842 15.7459 9.20842L4.08711 9.20842C3.78885 9.20842 3.5415 8.8873 3.5415 8.50008Z" fill="currentColor"/>
<path d="M3.54175 12.7501C3.54175 12.3629 3.78909 12.0417 4.08736 12.0417L15.7461 12.0417C16.0444 12.0417 16.2917 12.3629 16.2917 12.7501C16.2917 13.1373 16.0444 13.4584 15.7461 13.4584L4.08736 13.4584C3.78909 13.4584 3.54175 13.1373 3.54175 12.7501Z" fill="currentColor"/>
<path d="M3.54175 4.25008C3.54175 3.86286 3.78909 3.54175 4.08736 3.54175L15.7461 3.54175C16.0444 3.54175 16.2917 3.86286 16.2917 4.25008C16.2917 4.6373 16.0444 4.95842 15.7461 4.95842L4.08736 4.95841C3.78909 4.95841 3.54175 4.6373 3.54175 4.25008Z" fill="currentColor"/>
</svg>
