<svg width="1em" height="1em" viewBox="0 0 18 18" fill="none" xmlns="http://www.w3.org/2000/svg">
<path d="M0.9375 14.25C0.9375 13.9425 1.1925 13.6875 1.5 13.6875L9.75 13.6875C10.0575 13.6875 10.3125 13.9425 10.3125 14.25C10.3125 14.5575 10.0575 14.8125 9.75 14.8125L1.5 14.8125C1.1925 14.8125 0.9375 14.5575 0.9375 14.25Z" fill="currentColor"/>
<mask id="path-2-inside-1_1686_16170" fill="white">
<path d="M12.1875 14.25C12.1875 13.9425 12.4425 13.6875 12.75 13.6875L16.5 13.6875C16.8075 13.6875 17.0625 13.9425 17.0625 14.25C17.0625 14.5575 16.8075 14.8125 16.5 14.8125L12.75 14.8125C12.4425 14.8125 12.1875 14.5575 12.1875 14.25Z"/>
</mask>
<path d="M12.1875 14.25C12.1875 13.9425 12.4425 13.6875 12.75 13.6875L16.5 13.6875C16.8075 13.6875 17.0625 13.9425 17.0625 14.25C17.0625 14.5575 16.8075 14.8125 16.5 14.8125L12.75 14.8125C12.4425 14.8125 12.1875 14.5575 12.1875 14.25Z" fill="currentColor"/>
<path d="M13.6875 14.25C13.6875 14.7709 13.2709 15.1875 12.75 15.1875L12.75 12.1875C11.6141 12.1875 10.6875 13.1141 10.6875 14.25L13.6875 14.25ZM12.75 15.1875L16.5 15.1875L16.5 12.1875L12.75 12.1875L12.75 15.1875ZM16.5 15.1875C15.9791 15.1875 15.5625 14.7709 15.5625 14.25L18.5625 14.25C18.5625 13.1141 17.6359 12.1875 16.5 12.1875L16.5 15.1875ZM15.5625 14.25C15.5625 13.7291 15.9791 13.3125 16.5 13.3125L16.5 16.3125C17.6359 16.3125 18.5625 15.3859 18.5625 14.25L15.5625 14.25ZM16.5 13.3125L12.75 13.3125L12.75 16.3125L16.5 16.3125L16.5 13.3125ZM12.75 13.3125C13.2709 13.3125 13.6875 13.7291 13.6875 14.25L10.6875 14.25C10.6875 15.3859 11.6141 16.3125 12.75 16.3125L12.75 13.3125Z" fill="currentColor" mask="url(#path-2-inside-1_1686_16170)"/>
<mask id="path-4-inside-2_1686_16170" fill="white">
<path d="M0.9375 9C0.9375 8.6925 1.1925 8.4375 1.5 8.4375L5.25 8.4375C5.5575 8.4375 5.8125 8.6925 5.8125 9C5.8125 9.3075 5.5575 9.5625 5.25 9.5625L1.5 9.5625C1.1925 9.5625 0.9375 9.3075 0.9375 9Z"/>
</mask>
<path d="M0.9375 9C0.9375 8.6925 1.1925 8.4375 1.5 8.4375L5.25 8.4375C5.5575 8.4375 5.8125 8.6925 5.8125 9C5.8125 9.3075 5.5575 9.5625 5.25 9.5625L1.5 9.5625C1.1925 9.5625 0.9375 9.3075 0.9375 9Z" fill="currentColor"/>
<path d="M2.4375 9C2.4375 9.52093 2.02093 9.9375 1.5 9.9375L1.5 6.9375C0.364073 6.9375 -0.5625 7.86407 -0.5625 9L2.4375 9ZM1.5 9.9375L5.25 9.9375L5.25 6.9375L1.5 6.9375L1.5 9.9375ZM5.25 9.9375C4.72907 9.9375 4.3125 9.52093 4.3125 9L7.3125 9C7.3125 7.86407 6.38593 6.9375 5.25 6.9375L5.25 9.9375ZM4.3125 9C4.3125 8.47907 4.72907 8.0625 5.25 8.0625L5.25 11.0625C6.38593 11.0625 7.3125 10.1359 7.3125 9L4.3125 9ZM5.25 8.0625L1.5 8.0625L1.5 11.0625L5.25 11.0625L5.25 8.0625ZM1.5 8.0625C2.02093 8.0625 2.4375 8.47907 2.4375 9L-0.5625 9C-0.5625 10.1359 0.364073 11.0625 1.5 11.0625L1.5 8.0625Z" fill="currentColor" mask="url(#path-4-inside-2_1686_16170)"/>
<path d="M7.6875 9C7.6875 8.6925 7.9425 8.4375 8.25 8.4375L16.5 8.4375C16.8075 8.4375 17.0625 8.6925 17.0625 9C17.0625 9.3075 16.8075 9.5625 16.5 9.5625L8.25 9.5625C7.9425 9.5625 7.6875 9.3075 7.6875 9Z" fill="currentColor"/>
<path d="M0.9375 3.75C0.9375 3.4425 1.1925 3.1875 1.5 3.1875L9.75 3.1875C10.0575 3.1875 10.3125 3.4425 10.3125 3.75C10.3125 4.0575 10.0575 4.3125 9.75 4.3125L1.5 4.3125C1.1925 4.3125 0.9375 4.0575 0.9375 3.75Z" fill="currentColor"/>
<path d="M12.1875 3.75C12.1875 3.4425 12.4425 3.1875 12.75 3.1875L16.5 3.1875C16.8075 3.1875 17.0625 3.4425 17.0625 3.75C17.0625 4.0575 16.8075 4.3125 16.5 4.3125L12.75 4.3125C12.4425 4.3125 12.1875 4.0575 12.1875 3.75Z" fill="currentColor"/>
<path d="M9.1875 5.25L9.1875 2.25C9.1875 1.9425 9.4425 1.6875 9.75 1.6875C10.0575 1.6875 10.3125 1.9425 10.3125 2.25L10.3125 5.25C10.3125 5.5575 10.0575 5.8125 9.75 5.8125C9.4425 5.8125 9.1875 5.5575 9.1875 5.25Z" fill="currentColor"/>
<path d="M9.1875 15.75L9.1875 12.75C9.1875 12.4425 9.4425 12.1875 9.75 12.1875C10.0575 12.1875 10.3125 12.4425 10.3125 12.75L10.3125 15.75C10.3125 16.0575 10.0575 16.3125 9.75 16.3125C9.4425 16.3125 9.1875 16.0575 9.1875 15.75Z" fill="currentColor"/>
<path d="M7.6875 10.5L7.6875 7.5C7.6875 7.1925 7.9425 6.9375 8.25 6.9375C8.5575 6.9375 8.8125 7.1925 8.8125 7.5L8.8125 10.5C8.8125 10.8075 8.5575 11.0625 8.25 11.0625C7.9425 11.0625 7.6875 10.8075 7.6875 10.5Z" fill="currentColor"/>
</svg>
