<svg width="1em" height="1em" viewBox="0 0 20 20" fill="none" xmlns="http://www.w3.org/2000/svg">
<path d="M11.1924 13.1249H3.6674C2.73407 13.1249 1.88407 12.6416 1.40907 11.8332C0.934068 11.0249 0.917402 10.0582 1.3674 9.2332L5.12574 2.39154C5.5924 1.54154 6.45074 1.0332 7.42574 1.0332C8.40074 1.0332 9.25907 1.54154 9.72573 2.39154L13.4924 9.2332C13.9424 10.0499 13.9257 11.0249 13.4507 11.8332C12.9757 12.6416 12.1257 13.1249 11.1924 13.1249ZM7.42574 2.29154C6.9174 2.29154 6.4674 2.55822 6.22574 2.99988L2.4674 9.84154C2.23407 10.2749 2.2424 10.7749 2.48407 11.1999C2.73407 11.6249 3.17574 11.8749 3.6674 11.8749H11.1924C11.6841 11.8749 12.1257 11.6249 12.3757 11.1999C12.6257 10.7749 12.6341 10.2749 12.3924 9.84154L8.62573 2.99988C8.38407 2.55822 7.93407 2.29154 7.42574 2.29154Z" fill="currentColor"/>
<path d="M12.9167 18.9583C9.58333 18.9583 6.875 16.25 6.875 12.9167C6.875 12.7667 6.88333 12.6167 6.89167 12.4667C6.90833 12.1333 7.18333 11.875 7.51667 11.875H11.1917C11.6833 11.875 12.125 11.625 12.375 11.2C12.625 10.775 12.6333 10.275 12.3917 9.84166L11.325 7.90001C11.225 7.72501 11.225 7.51666 11.3083 7.33332C11.3917 7.14999 11.5583 7.025 11.75 6.98334C12.125 6.90834 12.5167 6.875 12.9167 6.875C16.25 6.875 18.9583 9.58333 18.9583 12.9167C18.9583 16.25 16.25 18.9583 12.9167 18.9583ZM8.13333 13.125C8.24167 15.675 10.35 17.7083 12.9167 17.7083C15.5583 17.7083 17.7083 15.5583 17.7083 12.9167C17.7083 10.275 15.5583 8.125 12.9167 8.125C12.9 8.125 12.8917 8.125 12.875 8.125L13.4917 9.24166C13.9417 10.0583 13.925 11.0333 13.45 11.8417C12.975 12.65 12.1333 13.1333 11.1917 13.1333H8.13333V13.125Z" fill="currentColor"/>
</svg>
