<svg viewBox="0 0 18 18" fill="none" xmlns="http://www.w3.org/2000/svg">
<path d="M13.9572 5.00999C13.6497 5.00999 13.3947 4.75499 13.3947 4.44749V3.31499C13.3947 2.86499 13.0272 2.48999 12.5697 2.48999H2.87219C2.42219 2.48999 2.04719 2.85749 2.04719 3.31499V4.44749C2.04719 4.75499 1.79219 5.00999 1.48469 5.00999C1.17719 5.00999 0.929688 4.75499 0.929688 4.44749V3.31499C0.929688 2.24249 1.80719 1.36499 2.87969 1.36499H12.5697C13.6422 1.36499 14.5197 2.23499 14.5197 3.31499V4.44749C14.5197 4.75499 14.2647 5.00999 13.9572 5.00999Z" fill="currentColor"/>
<path d="M7.72656 14.1375C7.41906 14.1375 7.16406 13.8825 7.16406 13.575V2.48999C7.16406 2.18249 7.41906 1.92749 7.72656 1.92749C8.03406 1.92749 8.28906 2.18249 8.28906 2.48999V13.575C8.28906 13.89 8.03406 14.1375 7.72656 14.1375Z" fill="currentColor"/>
<path d="M9.36078 14.1375H5.17578C4.86828 14.1375 4.61328 13.8825 4.61328 13.575C4.61328 13.2675 4.86828 13.0125 5.17578 13.0125H9.36078C9.66828 13.0125 9.92328 13.2675 9.92328 13.575C9.92328 13.8825 9.66828 14.1375 9.36078 14.1375Z" fill="currentColor"/>
<path d="M16.5092 9.90006C16.2017 9.90006 15.9467 9.64506 15.9467 9.33756V8.73756C15.9467 8.50506 15.7517 8.31006 15.5192 8.31006H10.2617C9.95422 8.31006 9.69922 8.05506 9.69922 7.74756C9.69922 7.44006 9.95422 7.18506 10.2617 7.18506H15.5192C16.3742 7.18506 17.0717 7.88256 17.0717 8.73756V9.33756C17.0717 9.65256 16.8242 9.90006 16.5092 9.90006Z" fill="currentColor"/>
<path d="M12.0586 16.6351C11.7511 16.6351 11.4961 16.3801 11.4961 16.0726V8.15259C11.4961 7.84509 11.7511 7.59009 12.0586 7.59009C12.3661 7.59009 12.6211 7.84509 12.6211 8.15259V16.0726C12.6211 16.3801 12.3661 16.6351 12.0586 16.6351Z" fill="currentColor"/>
<path d="M13.6631 16.635H10.4531C10.1456 16.635 9.89062 16.38 9.89062 16.0725C9.89062 15.765 10.1456 15.51 10.4531 15.51H13.6631C13.9706 15.51 14.2256 15.765 14.2256 16.0725C14.2256 16.38 13.9706 16.635 13.6631 16.635Z" fill="currentColor"/>
</svg>
