<svg width="1em" height="1em" viewBox="0 0 18 18" fill="none" xmlns="http://www.w3.org/2000/svg">
<path d="M13.245 17.0027C12.8475 17.0027 12.3375 16.8752 11.7 16.5002L9.45747 15.1727C9.22497 15.0377 8.77497 15.0377 8.54997 15.1727L6.29997 16.5002C4.97247 17.2877 4.19247 16.9727 3.83997 16.7177C3.49497 16.4627 2.95497 15.8102 3.30747 14.3102L3.83997 12.0077C3.89997 11.7677 3.77997 11.3552 3.59997 11.1752L1.73997 9.31524C0.809966 8.38523 0.884966 7.59023 1.01247 7.20023C1.13997 6.81024 1.54497 6.12023 2.83497 5.90273L5.22747 5.50523C5.45247 5.46773 5.77497 5.22773 5.87247 5.02523L7.19997 2.37773C7.79997 1.17023 8.58747 0.990234 8.99997 0.990234C9.41247 0.990234 10.2 1.17023 10.8 2.37773L12.12 5.01773C12.225 5.22023 12.5475 5.46023 12.7725 5.49773L15.165 5.89523C16.4625 6.11273 16.8675 6.80273 16.9875 7.19273C17.1075 7.58273 17.1825 8.37773 16.26 9.30773L14.4 11.1752C14.22 11.3552 14.1075 11.7602 14.16 12.0077L14.6925 14.3102C15.0375 15.8102 14.505 16.4627 14.16 16.7177C13.9725 16.8527 13.6725 17.0027 13.245 17.0027ZM8.99997 13.9427C9.36747 13.9427 9.73497 14.0327 10.0275 14.2052L12.27 15.5327C12.9225 15.9227 13.335 15.9227 13.4925 15.8102C13.65 15.6977 13.7625 15.3002 13.5975 14.5652L13.065 12.2627C12.9225 11.6402 13.155 10.8377 13.605 10.3802L15.465 8.52023C15.8325 8.15273 15.9975 7.79274 15.9225 7.54523C15.84 7.29773 15.495 7.09523 14.985 7.01273L12.5925 6.61523C12.015 6.51773 11.385 6.05273 11.1225 5.52773L9.80247 2.88773C9.56247 2.40773 9.26247 2.12273 8.99997 2.12273C8.73747 2.12273 8.43747 2.40773 8.20497 2.88773L6.87747 5.52773C6.61497 6.05273 5.98497 6.51773 5.40747 6.61523L3.02247 7.01273C2.51247 7.09523 2.16747 7.29773 2.08497 7.54523C2.00247 7.79274 2.17497 8.16023 2.54247 8.52023L4.40247 10.3802C4.85247 10.8302 5.08497 11.6402 4.94247 12.2627L4.40997 14.5652C4.23747 15.3077 4.35747 15.6977 4.51497 15.8102C4.67247 15.9227 5.07747 15.9152 5.73747 15.5327L7.97997 14.2052C8.26497 14.0327 8.63247 13.9427 8.99997 13.9427Z" fill="currentColor"/>
</svg>
