<svg width="24" height="24" viewBox="0 0 24 24" fill="none" xmlns="http://www.w3.org/2000/svg">
<path d="M15 22.25H9C6.3424 22.25 4.56492 21.6803 3.4423 20.5577C2.31968 19.4351 1.75 17.6576 1.75 15V9C1.75 6.3424 2.31968 4.56492 3.4423 3.4423C4.56492 2.31968 6.3424 1.75 9 1.75H11C11.1339 1.75 11.25 1.86614 11.25 2C11.25 2.13386 11.1339 2.25 11 2.25H9C6.65972 2.25 4.92432 2.66107 3.7927 3.7927C2.66107 4.92432 2.25 6.65972 2.25 9V15C2.25 17.3403 2.66107 19.0757 3.7927 20.2073C4.92432 21.3389 6.65972 21.75 9 21.75H15C17.3403 21.75 19.0757 21.3389 20.2073 20.2073C21.3389 19.0757 21.75 17.3403 21.75 15V13C21.75 12.8661 21.8661 12.75 22 12.75C22.1339 12.75 22.25 12.8661 22.25 13V15C22.25 17.6576 21.6803 19.4351 20.5577 20.5577C19.4351 21.6803 17.6576 22.25 15 22.25Z" fill="currentColor" stroke="currentColor"/>
<path d="M9.17035 15.58C8.98035 15.58 8.79035 15.51 8.64035 15.36C8.35035 15.07 8.35035 14.59 8.64035 14.3L14.3004 8.63999C14.5904 8.34999 15.0704 8.34999 15.3604 8.63999C15.6504 8.92999 15.6504 9.40998 15.3604 9.69998L9.70035 15.36C9.56035 15.51 9.36035 15.58 9.17035 15.58Z" fill="currentColor"/>
<path d="M14.8304 15.58C14.6404 15.58 14.4504 15.51 14.3004 15.36L8.64035 9.69998C8.35035 9.40998 8.35035 8.92999 8.64035 8.63999C8.93035 8.34999 9.41035 8.34999 9.70035 8.63999L15.3604 14.3C15.6504 14.59 15.6504 15.07 15.3604 15.36C15.2104 15.51 15.0204 15.58 14.8304 15.58Z" fill="currentColor"/>
</svg>
