<svg width="1em" height="1em" viewBox="0 0 18 18" fill="none" xmlns="http://www.w3.org/2000/svg">
<path d="M15.75 3.75H2.25C1.9425 3.75 1.6875 3.41 1.6875 3C1.6875 2.59 1.9425 2.25 2.25 2.25H15.75C16.0575 2.25 16.3125 2.59 16.3125 3C16.3125 3.41 16.0575 3.75 15.75 3.75Z" fill="currentColor"/>
<path d="M9.3525 7.5H2.25C1.9425 7.5 1.6875 7.16 1.6875 6.75C1.6875 6.34 1.9425 6 2.25 6H9.3525C9.66 6 9.915 6.34 9.915 6.75C9.915 7.16 9.6675 7.5 9.3525 7.5Z" fill="currentColor"/>
<path d="M15.75 11.25H2.25C1.9425 11.25 1.6875 10.91 1.6875 10.5C1.6875 10.09 1.9425 9.75 2.25 9.75H15.75C16.0575 9.75 16.3125 10.09 16.3125 10.5C16.3125 10.91 16.0575 11.25 15.75 11.25Z" fill="currentColor"/>
<path d="M9.3525 15H2.25C1.9425 15 1.6875 14.66 1.6875 14.25C1.6875 13.84 1.9425 13.5 2.25 13.5H9.3525C9.66 13.5 9.915 13.84 9.915 14.25C9.915 14.66 9.6675 15 9.3525 15Z" fill="currentColor"/>
</svg>
