<svg width="1em" height="1em" viewBox="0 0 14 14" fill="none" xmlns="http://www.w3.org/2000/svg">
<path d="M7.00033 13.2709C3.54116 13.2709 0.729492 10.4592 0.729492 7.00008C0.729492 3.54092 3.54116 0.729248 7.00033 0.729248C10.4595 0.729248 13.2712 3.54092 13.2712 7.00008C13.2712 10.4592 10.4595 13.2709 7.00033 13.2709ZM7.00033 1.60425C4.02533 1.60425 1.60449 4.02508 1.60449 7.00008C1.60449 9.97508 4.02533 12.3959 7.00033 12.3959C9.97533 12.3959 12.3962 9.97508 12.3962 7.00008C12.3962 4.02508 9.97533 1.60425 7.00033 1.60425Z" fill="currentColor"/>
<mask id="path-2-inside-1_798_29740" fill="white">
<path d="M6.17184 9.08827C6.05517 9.08827 5.94434 9.0416 5.86267 8.95993L4.21184 7.3091C4.04267 7.13993 4.04267 6.85993 4.21184 6.69077C4.381 6.5216 4.661 6.5216 4.83017 6.69077L6.17184 8.03243L9.17017 5.0341C9.33934 4.86493 9.61934 4.86493 9.7885 5.0341C9.95767 5.20327 9.95767 5.48327 9.7885 5.65243L6.481 8.95993C6.39934 9.0416 6.2885 9.08827 6.17184 9.08827Z"/>
</mask>
<path d="M5.86267 8.95993L6.56978 8.25283L5.86267 8.95993ZM4.21184 7.3091L3.50473 8.01621H3.50473L4.21184 7.3091ZM4.83017 6.69077L5.53728 5.98366H5.53728L4.83017 6.69077ZM6.17184 8.03243L5.46473 8.73954L6.17184 9.44665L6.87894 8.73954L6.17184 8.03243ZM9.17017 5.0341L9.87728 5.74121L9.17017 5.0341ZM9.7885 5.65243L10.4956 6.35954L9.7885 5.65243ZM6.481 8.95993L5.7739 8.25283L6.481 8.95993ZM6.17184 8.08827C6.3234 8.08827 6.46605 8.1491 6.56978 8.25283L5.15556 9.66704C5.42262 9.9341 5.78694 10.0883 6.17184 10.0883V8.08827ZM6.56978 8.25283L4.91894 6.60199L3.50473 8.01621L5.15556 9.66704L6.56978 8.25283ZM4.91894 6.60199C5.1403 6.82335 5.1403 7.17652 4.91894 7.39787L3.50473 5.98366C2.94504 6.54335 2.94504 7.45652 3.50473 8.01621L4.91894 6.60199ZM4.91894 7.39787C4.69759 7.61923 4.34442 7.61923 4.12306 7.39787L5.53728 5.98366C4.97759 5.42397 4.06442 5.42397 3.50473 5.98366L4.91894 7.39787ZM4.12306 7.39787L5.46473 8.73954L6.87894 7.32533L5.53728 5.98366L4.12306 7.39787ZM6.87894 8.73954L9.87728 5.74121L8.46306 4.32699L5.46473 7.32533L6.87894 8.73954ZM9.87728 5.74121C9.65592 5.96257 9.30275 5.96257 9.0814 5.74121L10.4956 4.32699C9.93592 3.7673 9.02275 3.7673 8.46306 4.32699L9.87728 5.74121ZM9.0814 5.74121C8.86004 5.51985 8.86004 5.16669 9.0814 4.94533L10.4956 6.35954C11.0553 5.79985 11.0553 4.88669 10.4956 4.32699L9.0814 5.74121ZM9.0814 4.94533L5.7739 8.25283L7.18811 9.66704L10.4956 6.35954L9.0814 4.94533ZM5.7739 8.25283C5.87762 8.1491 6.02027 8.08827 6.17184 8.08827V10.0883C6.55673 10.0883 6.92105 9.9341 7.18811 9.66704L5.7739 8.25283Z" fill="currentColor" mask="url(#path-2-inside-1_798_29740)"/>
</svg>
