<svg viewBox="0 0 17 17" fill="none" xmlns="http://www.w3.org/2000/svg">
<path d="M10.6251 16.0759H6.37508C2.52883 16.0759 0.885498 14.3611 0.885498 10.3476V5.91283C0.885498 1.89935 2.52883 0.18457 6.37508 0.18457H10.6251C14.4713 0.18457 16.1147 1.89935 16.1147 5.91283V10.3476C16.1147 14.3611 14.4713 16.0759 10.6251 16.0759ZM6.37508 1.29327C3.10966 1.29327 1.948 2.50544 1.948 5.91283V10.3476C1.948 13.755 3.10966 14.9672 6.37508 14.9672H10.6251C13.8905 14.9672 15.0522 13.755 15.0522 10.3476V5.91283C15.0522 2.50544 13.8905 1.29327 10.6251 1.29327H6.37508Z" fill="currentColor"/>
<path d="M10.6251 16.0759H6.37508C2.52883 16.0759 0.885498 14.3611 0.885498 10.3476V5.91283C0.885498 1.89935 2.52883 0.18457 6.37508 0.18457H10.6251C14.4713 0.18457 16.1147 1.89935 16.1147 5.91283V10.3476C16.1147 14.3611 14.4713 16.0759 10.6251 16.0759ZM6.37508 1.29327C3.10966 1.29327 1.948 2.50544 1.948 5.91283V10.3476C1.948 13.755 3.10966 14.9672 6.37508 14.9672H10.6251C13.8905 14.9672 15.0522 13.755 15.0522 10.3476V5.91283C15.0522 2.50544 13.8905 1.29327 10.6251 1.29327H6.37508Z" fill="currentColor"/>
<path d="M7.49427 10.7762C7.3526 10.7762 7.21802 10.7171 7.11885 10.6136L5.11427 8.52188C4.90885 8.30754 4.90885 7.95275 5.11427 7.73841C5.31968 7.52406 5.65968 7.52406 5.8651 7.73841L7.49427 9.43841L11.1351 5.63928C11.3405 5.42493 11.6805 5.42493 11.8859 5.63928C12.0914 5.85362 12.0914 6.20841 11.8859 6.42275L7.86968 10.6136C7.77052 10.7171 7.63593 10.7762 7.49427 10.7762Z" fill="currentColor"/>
</svg>
