<svg width="1em" height="1em" viewBox="0 0 18 18" fill="none" xmlns="http://www.w3.org/2000/svg">
<path d="M2.23855 4.42012L2.23878 4.4201L3.76878 4.2701L3.77049 4.26993C7.71509 3.86953 11.7214 4.02434 15.7537 4.42009L15.7539 4.42012C15.7681 4.4215 15.7816 4.42812 15.7928 4.44183C15.8041 4.45576 15.809 4.47221 15.8074 4.48893L15.8073 4.48892L15.8065 4.49913C15.8055 4.51171 15.8005 4.52232 15.7901 4.53173C15.7788 4.542 15.7644 4.54748 15.75 4.54748H15.7499H15.7498H15.7497H15.7496H15.7496H15.7495H15.7494H15.7493H15.7492H15.7491H15.749H15.7489H15.7488H15.7488H15.7487H15.7486H15.7485H15.7484H15.7483H15.7482H15.7481H15.748H15.7479H15.7478H15.7477H15.7477H15.7476H15.7475H15.7474H15.7473H15.7472H15.7471H15.747H15.7469H15.7468H15.7467H15.7466H15.7465H15.7464H15.7463H15.7463H15.7462H15.7461H15.746H15.7459H15.7458H15.7457H15.7456H15.7455H15.7454H15.7453H15.7452H15.7451H15.745H15.7449H15.7448H15.7447H15.7446H15.7445H15.7444H15.7443H15.7442H15.7441H15.744H15.7439H15.7438H15.7437H15.7436H15.7435H15.7434H15.7433H15.7432H15.7431H15.743H15.7429H15.7428H15.7427H15.7426H15.7425H15.7424H15.7423H15.7422H15.7421H15.742H15.7419H15.7418H15.7417H15.7416H15.7415H15.7414H15.7413H15.7412H15.7411H15.741H15.7409H15.7408H15.7407H15.7406H15.7405H15.7404H15.7403H15.7402H15.7401H15.74H15.7399H15.7398H15.7397H15.7396H15.7395H15.7394H15.7393H15.7392H15.7391H15.7389H15.7388H15.7387H15.7386H15.7385H15.7384H15.7383H15.7382H15.7381H15.738H15.7379H15.7378H15.7377H15.7376H15.7375H15.7374H15.7372H15.7371H15.737H15.7369H15.7368H15.7367H15.7366H15.7365H15.7364H15.7363H15.7362H15.7361H15.7359H15.7358H15.7357H15.7356H15.7355H15.7354H15.7353H15.7352H15.7351H15.735H15.7349H15.7347H15.7346H15.7345H15.7344H15.7343H15.7342H15.7341H15.734H15.7339H15.7337H15.7336H15.7335H15.7334H15.7333H15.7332H15.7331H15.733H15.7329H15.7327H15.7326H15.7325H15.7324H15.7323H15.7322H15.7321H15.7319H15.7318H15.7317H15.7316H15.7315H15.7314H15.7313H15.7312H15.731H15.7309H15.7308H15.7307H15.7306H15.7305H15.7304H15.7302H15.7301H15.73H15.7299H15.7298H15.7297H15.7295H15.7294H15.7293H15.7292H15.7291H15.729H15.7289H15.7287H15.7286H15.7285H15.7284H15.7283H15.7282H15.728H15.7279H15.7278H15.7277H15.7276H15.7275H15.7273H15.7272H15.7271H15.727H15.7269H15.7267H15.7266H15.7265H15.7264H15.7263H15.7262H15.726H15.7259H15.7258H15.7257H15.7256H15.7254H15.7253H15.7252H15.7251H15.725H15.7249H15.7247H15.7246H15.7245H15.7244H15.7243H15.7241H15.724H15.7239H15.7238H15.7237H15.7235H15.7234H15.7233H15.7232H15.7231H15.7229H15.7228H15.7227H15.7226H15.7224H15.7223H15.7222H15.7221H15.722H15.7218H15.7217H15.7216H15.7215H15.7214H15.7212H15.7211H15.721H15.7209H15.7207H15.7206H15.7205H15.7204H15.7203H15.7201H15.72H15.7199H15.7198H15.7196H15.7195H15.7194H15.7193H15.7191H15.719H15.7189H15.7188H15.7187H15.7185H15.7184H15.7183H15.7182H15.718H15.7179H15.7178H15.7177H15.7175H15.7174H15.7173H15.7172H15.717H15.7169H15.7168H15.7167H15.7165H15.7164H15.7163H15.7162H15.716H15.7159H15.7158H15.7157H15.7155H15.7154H15.7153H15.7152H15.715H15.715C11.7369 4.14996 7.74947 3.99882 3.7904 4.39995C3.79013 4.39998 3.78986 4.4 3.78959 4.40003L2.26259 4.54973C2.26246 4.54975 2.26233 4.54976 2.2622 4.54977C2.23865 4.55192 2.22075 4.54489 2.20814 4.53459C2.19581 4.52452 2.18718 4.51042 2.18525 4.49008C2.18302 4.46666 2.18984 4.45108 2.19843 4.44062C2.20732 4.42981 2.22015 4.42191 2.23855 4.42012Z" fill="currentColor" stroke="currentColor"/>
<path d="M6.37501 4.29C6.34501 4.29 6.31501 4.29 6.27751 4.2825C5.97751 4.23 5.76751 3.9375 5.82001 3.6375L5.98501 2.655C6.10501 1.935 6.27001 0.9375 8.01751 0.9375H9.98251C11.7375 0.9375 11.9025 1.9725 12.015 2.6625L12.18 3.6375C12.2325 3.945 12.0225 4.2375 11.7225 4.2825C11.415 4.335 11.1225 4.125 11.0775 3.825L10.9125 2.85C10.8075 2.1975 10.785 2.07 9.99001 2.07H8.02501C7.23001 2.07 7.21501 2.175 7.10251 2.8425L6.93001 3.8175C6.88501 4.095 6.64501 4.29 6.37501 4.29Z" fill="currentColor"/>
<path d="M11.4075 17.0625H6.59248C3.97498 17.0625 3.86999 15.615 3.78749 14.445L3.29999 6.8925C3.27749 6.585 3.51748 6.315 3.82498 6.2925C4.13998 6.2775 4.40249 6.51 4.42499 6.8175L4.91249 14.37C4.99499 15.51 5.02498 15.9375 6.59248 15.9375H11.4075C12.9825 15.9375 13.0125 15.51 13.0875 14.37L13.575 6.8175C13.5975 6.51 13.8675 6.2775 14.175 6.2925C14.4825 6.315 14.7225 6.5775 14.7 6.8925L14.2125 14.445C14.13 15.615 14.025 17.0625 11.4075 17.0625Z" fill="currentColor"/>
<path d="M10.245 12.9375H7.7475C7.44 12.9375 7.185 12.6825 7.185 12.375C7.185 12.0675 7.44 11.8125 7.7475 11.8125H10.245C10.5525 11.8125 10.8075 12.0675 10.8075 12.375C10.8075 12.6825 10.5525 12.9375 10.245 12.9375Z" fill="currentColor"/>
<path d="M10.875 9.9375H7.125C6.8175 9.9375 6.5625 9.6825 6.5625 9.375C6.5625 9.0675 6.8175 8.8125 7.125 8.8125H10.875C11.1825 8.8125 11.4375 9.0675 11.4375 9.375C11.4375 9.6825 11.1825 9.9375 10.875 9.9375Z" fill="currentColor"/>
</svg>
