<svg width="1em" height="1em" viewBox="0 0 18 18" fill="none" xmlns="http://www.w3.org/2000/svg">
<path d="M12 5.25C12 6.04565 11.6839 6.80871 11.1213 7.37132C10.5587 7.93393 9.79565 8.25 9 8.25C8.20435 8.25 7.44129 7.93393 6.87868 7.37132C6.31607 6.80871 6 6.04565 6 5.25C6 4.45435 6.31607 3.69129 6.87868 3.12868C7.44129 2.56607 8.20435 2.25 9 2.25C9.79565 2.25 10.5587 2.56607 11.1213 3.12868C11.6839 3.69129 12 4.45435 12 5.25V5.25ZM9 10.5C7.60761 10.5 6.27226 11.0531 5.28769 12.0377C4.30312 13.0223 3.75 14.3576 3.75 15.75H14.25C14.25 14.3576 13.6969 13.0223 12.7123 12.0377C11.7277 11.0531 10.3924 10.5 9 10.5V10.5Z" stroke="currentColor" stroke-width="1.5" stroke-linecap="round" stroke-linejoin="round"/>
</svg>
