<svg width="1em" height="1em" viewBox="0 0 18 18" fill="none" xmlns="http://www.w3.org/2000/svg">
<path d="M6.6271 8.08969L6.67732 8.09146L6.71635 8.08495C6.72231 8.08466 6.73187 8.08437 6.74499 8.08437C6.77347 8.08437 6.80939 8.08569 6.84633 8.08853L6.87694 8.09088L6.90761 8.08947C8.64614 8.00964 10.0083 6.5812 10.0172 4.83253H10.0172V4.83C10.0172 3.03136 8.54832 1.5625 6.74968 1.5625C4.95104 1.5625 3.48218 3.03136 3.48218 4.83C3.48218 6.59956 4.86572 8.02773 6.6271 8.08969ZM6.86968 8.215H6.86955H6.86941H6.86928H6.86915H6.86902H6.86889H6.86876H6.86863H6.8685H6.86837H6.86824H6.86811H6.86798H6.86785H6.86772H6.86759H6.86746H6.86733H6.8672H6.86707H6.86695H6.86682H6.86669H6.86656H6.86643H6.86631H6.86618H6.86605H6.86592H6.8658H6.86567H6.86554H6.86542H6.86529H6.86516H6.86504H6.86491H6.86479H6.86466H6.86453H6.86441H6.86428H6.86416H6.86403H6.86391H6.86378H6.86366H6.86354H6.86341H6.86329H6.86316H6.86304H6.86292H6.86279H6.86267H6.86254H6.86242H6.8623H6.86218H6.86205H6.86193H6.86181H6.86169H6.86156H6.86144H6.86132H6.8612H6.86107H6.86095H6.86083H6.86071H6.86059H6.86047H6.86035H6.86023H6.86011H6.85998H6.85986H6.85974H6.85962H6.8595H6.85938H6.85926H6.85914H6.85902H6.8589H6.85878H6.85866H6.85855H6.85843H6.85831H6.85819H6.85807H6.85795H6.85783H6.85771H6.8576H6.85748H6.85736H6.85724H6.85712H6.85701H6.85689H6.85677H6.85665H6.85653H6.85642H6.8563H6.85618H6.85607H6.85595H6.85583H6.85572H6.8556H6.85548H6.85537H6.85525H6.85513H6.85502H6.8549H6.85478H6.85467H6.85455H6.85444H6.85432H6.85421H6.85409H6.85397H6.85386H6.85374H6.85363H6.85351H6.8534H6.85328H6.85317H6.85305H6.85294H6.85283H6.85271H6.8526H6.85248H6.85237H6.85225H6.85214H6.85203H6.85191H6.8518H6.85168H6.85157H6.85146H6.85134H6.85123H6.85112H6.851H6.85089H6.85078H6.85066H6.85055H6.85044H6.85032H6.85021H6.8501H6.84999H6.84987H6.84976H6.84965H6.84953H6.84942H6.84931H6.8492H6.84909H6.84897H6.84886H6.84875H6.84864H6.84852H6.84841H6.8483H6.84819H6.84808H6.84797H6.84785H6.84774H6.84763H6.84752H6.84741H6.8473H6.84718H6.84707H6.84696H6.84685H6.84674H6.84663H6.84652H6.84641H6.84629H6.84618H6.84607H6.84596H6.84585H6.84574H6.84563H6.84559C6.77991 8.20745 6.71352 8.20793 6.65265 8.21389C4.76343 8.13641 3.35718 6.65229 3.35718 4.83C3.35718 2.96114 4.88082 1.4375 6.74968 1.4375C8.61825 1.4375 10.1417 2.96068 10.1422 4.82916C10.1352 6.66757 8.70018 8.15231 6.88384 8.215H6.86968Z" fill="currentColor" stroke="currentColor"/>
<path d="M12.4047 8.8125C12.3822 8.8125 12.3597 8.8125 12.3372 8.805C12.0297 8.835 11.7147 8.6175 11.6847 8.31C11.6547 8.0025 11.8422 7.725 12.1497 7.6875C12.2397 7.68 12.3372 7.68 12.4197 7.68C13.5147 7.62 14.3697 6.72 14.3697 5.6175C14.3697 4.4775 13.4472 3.555 12.3072 3.555C11.9997 3.5625 11.7447 3.3075 11.7447 3C11.7447 2.6925 11.9997 2.4375 12.3072 2.4375C14.0622 2.4375 15.4947 3.87 15.4947 5.625C15.4947 7.35 14.1447 8.745 12.4272 8.8125C12.4197 8.8125 12.4122 8.8125 12.4047 8.8125Z" fill="currentColor"/>
<path d="M6.87721 16.9125C5.40721 16.9125 3.92971 16.5375 2.81221 15.7875C1.76971 15.0975 1.19971 14.1525 1.19971 13.125C1.19971 12.0975 1.76971 11.145 2.81221 10.4475C5.06221 8.955 8.70721 8.955 10.9422 10.4475C11.9772 11.1375 12.5547 12.0825 12.5547 13.11C12.5547 14.1375 11.9847 15.09 10.9422 15.7875C9.81721 16.5375 8.34721 16.9125 6.87721 16.9125ZM3.43471 11.3925C2.71471 11.8725 2.32471 12.4875 2.32471 13.1325C2.32471 13.77 2.72221 14.385 3.43471 14.8575C5.30221 16.11 8.45221 16.11 10.3197 14.8575C11.0397 14.3775 11.4297 13.7625 11.4297 13.1175C11.4297 12.48 11.0322 11.865 10.3197 11.3925C8.45221 10.1475 5.30221 10.1475 3.43471 11.3925Z" fill="currentColor"/>
<path d="M13.7547 15.5625C13.4922 15.5625 13.2597 15.3825 13.2072 15.1125C13.1472 14.805 13.3422 14.5125 13.6422 14.445C14.1147 14.3475 14.5497 14.16 14.8872 13.8975C15.3147 13.575 15.5472 13.17 15.5472 12.7425C15.5472 12.315 15.3147 11.91 14.8947 11.595C14.5647 11.34 14.1522 11.16 13.6647 11.0475C13.3647 10.98 13.1697 10.68 13.2372 10.3725C13.3047 10.0725 13.6047 9.87751 13.9122 9.94501C14.5572 10.0875 15.1197 10.3425 15.5772 10.695C16.2747 11.22 16.6722 11.9625 16.6722 12.7425C16.6722 13.5225 16.2672 14.265 15.5697 14.7975C15.1047 15.1575 14.5197 15.42 13.8747 15.5475C13.8297 15.5625 13.7922 15.5625 13.7547 15.5625Z" fill="currentColor"/>
</svg>
